<svg version="1.1" id="Layer_1" xmlns="http://www.w3.org/2000/svg" xmlns:xlink="http://www.w3.org/1999/xlink" x="0px" y="0px"
	 width="100%" viewBox="0 0 475 235" enable-background="new 0 0 475 235" xml:space="preserve">
<path fill="#000101" opacity="1.000000" stroke="none" 
	d="
M279.000000,236.000000 
	C186.000015,236.000000 93.500031,236.000000 1.000037,236.000000 
	C1.000025,157.666702 1.000025,79.333397 1.000012,1.000069 
	C159.333267,1.000046 317.666534,1.000046 475.999878,1.000023 
	C475.999908,79.333260 475.999908,157.666519 475.999939,235.999893 
	C410.500000,236.000000 345.000000,236.000000 279.000000,236.000000 
M336.481628,157.781296 
	C339.801544,157.768219 343.146851,158.007904 346.434967,157.677979 
	C350.528473,157.267242 353.838013,155.735321 354.183136,150.752502 
	C354.429565,147.194092 355.185486,143.672623 355.669159,140.128555 
	C356.313263,135.409149 360.762604,132.631683 364.585571,135.193253 
	C366.439423,136.435440 367.651428,139.363678 368.161163,141.741455 
	C369.467377,147.834610 372.859314,151.908478 378.298798,154.730942 
	C387.454254,159.481598 396.808014,159.429077 406.517883,156.810593 
	C414.397308,154.685730 421.019989,151.068085 423.928131,143.012314 
	C426.145630,136.869644 428.129578,130.596191 429.593994,124.237328 
	C433.112244,108.959717 424.720703,97.659309 409.260590,95.282440 
	C400.480438,93.932571 392.567017,95.345680 384.648376,99.018982 
	C382.486298,100.021935 378.937317,100.238449 376.986603,99.127342 
	C366.288452,93.033821 354.797821,95.883102 343.631561,95.680885 
	C339.359680,95.603523 337.083771,94.204514 337.673828,89.995224 
	C337.900421,88.378891 338.674988,86.689308 338.402222,85.176933 
	C336.335449,73.715858 324.331207,66.727608 313.847473,71.756882 
	C308.770813,74.192268 303.940979,74.526207 298.789703,74.541901 
	C272.650909,74.621536 246.511108,74.515457 220.373428,74.710480 
	C212.351181,74.770332 209.873398,78.373016 211.432404,86.374146 
	C211.710815,87.803024 212.453674,89.424004 212.041519,90.636620 
	C211.465759,92.330696 210.219437,94.763275 208.881424,95.038368 
	C205.726303,95.687050 202.347244,95.246422 198.468597,95.246422 
	C198.867996,90.376381 198.781418,86.032303 199.678619,81.901924 
	C200.726318,77.078766 198.526733,77.016663 195.240189,78.197464 
	C189.432892,80.283936 183.500381,82.179398 178.007278,84.928200 
	C174.262390,86.802177 173.435440,85.661453 172.224777,82.346413 
	C168.682556,72.647118 161.631607,69.112587 151.361832,71.376656 
	C146.438324,72.462097 141.508118,74.288460 136.559708,74.362671 
	C107.745209,74.794876 78.924454,74.816032 50.105652,74.939209 
	C48.137707,74.947617 46.168472,74.655449 44.199837,74.503067 
	C44.661556,74.085236 45.123280,73.667404 45.584999,73.249573 
	C46.091293,74.866249 46.952930,76.468178 47.020786,78.103050 
	C47.123146,80.569389 46.501781,83.057434 46.483036,85.538490 
	C46.375996,99.704071 46.420013,113.870918 46.282005,128.036072 
	C46.205105,135.929214 45.813339,143.818893 45.684067,151.712097 
	C45.617939,155.750000 47.796013,157.582550 51.835838,157.592789 
	C73.484077,157.647644 95.132568,157.871338 116.779892,157.780029 
	C120.956116,157.762436 125.180481,156.862671 126.791977,151.799850 
	C128.005371,147.987717 130.041840,147.722565 132.616562,150.713455 
	C133.614502,151.872711 134.643066,153.054062 135.846298,153.980316 
	C144.191025,160.404068 153.124359,159.304260 162.023621,155.558853 
	C164.591782,154.478027 166.685547,154.258209 169.245148,155.280609 
	C181.278320,160.087204 192.979111,159.887573 204.391434,153.074524 
	C205.991440,152.119308 210.296219,152.312881 210.462112,152.856186 
	C212.282715,158.818665 217.389832,157.549301 221.225662,157.607986 
	C240.706635,157.906021 260.196747,157.933167 279.678070,157.659561 
	C284.681091,157.589310 290.822571,158.296616 292.329681,150.871506 
	C292.506927,149.998260 293.940277,149.379990 295.059052,148.411835 
	C296.440063,149.675873 297.675568,150.727280 298.821228,151.868881 
	C304.205444,157.234039 310.863342,158.883575 318.201141,158.574493 
	C323.964508,158.331741 329.727264,158.073990 336.481628,157.781296 
z"/>
<path fill="#50ECE2" opacity="1.000000" stroke="none" 
	d="
M335.985962,157.802094 
	C329.727264,158.073990 323.964508,158.331741 318.201141,158.574493 
	C310.863342,158.883575 304.205444,157.234039 298.821228,151.868881 
	C297.675568,150.727280 296.440063,149.675873 295.059052,148.411835 
	C293.940277,149.379990 292.506927,149.998260 292.329681,150.871506 
	C290.822571,158.296616 284.681091,157.589310 279.678070,157.659561 
	C260.196747,157.933167 240.706635,157.906021 221.225662,157.607986 
	C217.389832,157.549301 212.282715,158.818665 210.462112,152.856186 
	C210.296219,152.312881 205.991440,152.119308 204.391434,153.074524 
	C192.979111,159.887573 181.278320,160.087204 169.245148,155.280609 
	C166.685547,154.258209 164.591782,154.478027 162.023621,155.558853 
	C153.124359,159.304260 144.191025,160.404068 135.846298,153.980316 
	C134.643066,153.054062 133.614502,151.872711 132.616562,150.713455 
	C130.041840,147.722565 128.005371,147.987717 126.791977,151.799850 
	C125.180481,156.862671 120.956116,157.762436 116.779892,157.780029 
	C95.132568,157.871338 73.484077,157.647644 51.835838,157.592789 
	C47.796013,157.582550 45.617939,155.750000 45.684067,151.712097 
	C45.813339,143.818893 46.205105,135.929214 46.282005,128.036072 
	C46.420013,113.870918 46.375996,99.704071 46.483036,85.538490 
	C46.501781,83.057434 47.123146,80.569389 47.020786,78.103050 
	C46.952930,76.468178 46.091293,74.866249 45.584999,73.249573 
	C45.123280,73.667404 44.661556,74.085236 44.199837,74.503067 
	C46.168472,74.655449 48.137707,74.947617 50.105652,74.939209 
	C78.924454,74.816032 107.745209,74.794876 136.559708,74.362671 
	C141.508118,74.288460 146.438324,72.462097 151.361832,71.376656 
	C161.631607,69.112587 168.682556,72.647118 172.224777,82.346413 
	C173.435440,85.661453 174.262390,86.802177 178.007278,84.928200 
	C183.500381,82.179398 189.432892,80.283936 195.240189,78.197464 
	C198.526733,77.016663 200.726318,77.078766 199.678619,81.901924 
	C198.781418,86.032303 198.867996,90.376381 198.468597,95.246422 
	C202.347244,95.246422 205.726303,95.687050 208.881424,95.038368 
	C210.219437,94.763275 211.465759,92.330696 212.041519,90.636620 
	C212.453674,89.424004 211.710815,87.803024 211.432404,86.374146 
	C209.873398,78.373016 212.351181,74.770332 220.373428,74.710480 
	C246.511108,74.515457 272.650909,74.621536 298.789703,74.541901 
	C303.940979,74.526207 308.770813,74.192268 313.847473,71.756882 
	C324.331207,66.727608 336.335449,73.715858 338.402222,85.176933 
	C338.674988,86.689308 337.900421,88.378891 337.673828,89.995224 
	C337.083771,94.204514 339.359680,95.603523 343.631561,95.680885 
	C354.797821,95.883102 366.288452,93.033821 376.986603,99.127342 
	C378.937317,100.238449 382.486298,100.021935 384.648376,99.018982 
	C392.567017,95.345680 400.480438,93.932571 409.260590,95.282440 
	C424.720703,97.659309 433.112244,108.959717 429.593994,124.237328 
	C428.129578,130.596191 426.145630,136.869644 423.928131,143.012314 
	C421.019989,151.068085 414.397308,154.685730 406.517883,156.810593 
	C396.808014,159.429077 387.454254,159.481598 378.298798,154.730942 
	C372.859314,151.908478 369.467377,147.834610 368.161163,141.741455 
	C367.651428,139.363678 366.439423,136.435440 364.585571,135.193253 
	C360.762604,132.631683 356.313263,135.409149 355.669159,140.128555 
	C355.185486,143.672623 354.429565,147.194092 354.183136,150.752502 
	C353.838013,155.735321 350.528473,157.267242 346.434967,157.677979 
	C343.146851,158.007904 339.801544,157.768219 335.985962,157.802094 
M286.401459,88.543739 
	C286.401459,88.543739 286.172119,88.886116 285.813599,89.064705 
	C285.614990,89.321579 285.628998,89.566261 285.729614,90.643509 
	C285.746765,90.927689 285.763947,91.211868 285.838074,91.438286 
	C285.838074,91.438286 285.773712,91.388939 285.331604,91.911438 
	C285.082550,92.548485 284.833496,93.185532 284.029938,94.211754 
	C281.403900,102.859001 278.777863,111.506256 276.022797,120.733330 
	C275.771057,121.483795 275.519318,122.234261 274.707275,123.433647 
	C273.841705,125.442268 272.976135,127.450890 272.110565,129.459503 
	C271.818268,129.408524 271.525970,129.357529 271.233673,129.306549 
	C270.970581,124.885765 270.707520,120.464981 270.371155,115.263527 
	C270.330566,115.005341 270.289978,114.747147 270.200989,114.540100 
	C270.200989,114.540100 270.255188,114.585052 270.504791,113.698746 
	C270.644043,110.801956 270.783295,107.905159 271.356903,104.321243 
	C271.305969,99.558571 271.255035,94.795898 271.251617,89.161644 
	C271.242279,88.580627 271.232971,87.999611 271.183472,87.487686 
	C271.183472,87.487686 271.228424,87.553795 271.311188,86.758987 
	C271.330780,86.493332 271.350342,86.227684 271.707855,85.493187 
	C271.053589,85.093384 270.399323,84.693573 269.107056,84.333817 
	C268.468384,84.317101 267.829712,84.300385 266.481842,83.896721 
	C263.198853,83.848923 259.899628,83.598434 256.641357,83.859322 
	C255.443253,83.955254 253.633926,85.031845 253.306915,86.048317 
	C250.341797,95.265167 247.643372,104.567810 244.710846,114.372307 
	C244.627884,114.535637 244.544907,114.698967 243.976120,115.157188 
	C243.994247,116.119217 244.012375,117.081253 243.808517,118.661308 
	C243.512390,119.423988 243.216263,120.186661 242.382416,121.371361 
	C241.173615,123.698326 239.964813,126.025291 238.473602,128.895889 
	C237.859818,126.444130 237.429077,124.723557 236.939468,122.064163 
	C237.014557,117.508522 237.089645,112.952881 237.126663,108.465416 
	C237.126663,108.465416 237.163910,108.534035 237.306732,107.815910 
	C237.398148,106.355217 237.489548,104.894524 237.964767,102.577759 
	C237.997253,98.042786 238.029755,93.507805 237.960434,88.331161 
	C238.007690,87.902229 238.054947,87.473289 238.425705,86.862267 
	C238.467087,86.745995 238.573761,86.599976 238.537018,86.519287 
	C238.443527,86.314026 238.285873,86.137985 238.042389,85.459778 
	C238.027771,85.292747 238.013153,85.125725 237.752396,84.212906 
	C233.712891,83.894699 229.674179,83.377632 225.633469,83.361427 
	C224.130081,83.355400 222.622009,84.521492 221.103317,85.924812 
	C221.051498,86.951576 220.999695,87.978348 220.471878,89.675629 
	C220.533554,96.308640 220.595230,102.941650 220.785538,110.428429 
	C220.640015,119.839775 220.494507,129.251114 219.978699,139.399277 
	C219.850571,141.372086 219.276657,143.458771 219.741882,145.280014 
	C220.085571,146.625473 221.745987,148.578476 222.884460,148.623459 
	C230.145187,148.910370 237.430115,148.907959 244.693085,148.632324 
	C247.100723,148.540955 249.190170,147.168503 248.037262,143.266998 
	C248.096771,143.032669 248.156281,142.798355 248.165253,142.641022 
	C248.165253,142.641022 248.219666,142.715332 248.500809,141.942017 
	C248.617569,141.693832 248.734314,141.445633 249.374680,140.789429 
	C249.988144,137.980560 250.601608,135.171692 251.232239,132.199890 
	C251.232239,132.199890 251.395981,132.194672 251.874924,132.065063 
	C251.942917,131.374344 252.010895,130.683609 252.072662,129.271744 
	C252.097839,129.032684 252.123016,128.793610 252.112106,128.630981 
	C252.112106,128.630981 252.157211,128.702469 252.539505,127.885246 
	C252.732132,127.315460 252.924759,126.745674 253.569397,125.983749 
	C253.762665,124.993851 253.955917,124.003952 254.220154,122.311676 
	C254.424957,121.637131 254.629745,120.962585 255.430405,119.971695 
	C256.055847,120.412697 257.173523,120.803314 257.224701,121.303116 
	C257.501038,124.002625 257.513123,126.729179 257.527344,130.292831 
	C257.380371,133.191711 257.233398,136.090591 256.599884,139.635101 
	C256.631897,141.537750 256.663940,143.440414 256.747559,145.740799 
	C256.761292,146.009094 256.744781,146.275528 256.588715,147.303436 
	C257.074738,147.702591 257.556366,148.443466 258.047394,148.449768 
	C265.683838,148.547531 273.334137,148.776627 280.946228,148.350281 
	C282.204315,148.279831 283.296387,145.244659 284.631531,143.048477 
	C284.748535,142.696411 284.865509,142.344345 285.280396,141.722687 
	C285.280396,141.722687 285.195770,141.329926 285.391907,140.775925 
	C285.473663,140.597900 285.555389,140.419861 286.180573,139.858154 
	C288.168762,133.624176 290.156952,127.390175 292.295563,120.504257 
	C292.471588,120.094582 292.647644,119.684898 293.341461,118.896156 
	C293.730957,117.461678 294.120483,116.027199 294.609589,114.052399 
	C294.722168,113.704384 294.834747,113.356377 295.522247,112.582298 
	C295.944031,110.982834 296.365814,109.383362 296.939026,107.052544 
	C297.048279,106.566795 297.157562,106.081039 297.211060,105.649803 
	C297.211060,105.649803 297.262512,105.708389 297.455627,105.493820 
	C297.455627,105.493820 297.646851,105.277557 298.195465,104.894020 
	C299.679871,100.154175 301.164246,95.414330 302.791412,90.130035 
	C302.919495,89.777611 303.047607,89.425186 303.717865,88.694511 
	C305.481842,84.528717 305.432251,84.382057 301.204590,84.323975 
	C299.830933,84.301163 298.457275,84.278351 296.628113,83.906197 
	C295.721466,84.026924 294.814850,84.147644 293.289642,84.325874 
	C292.876312,84.307320 292.463013,84.288765 291.889893,83.869141 
	C290.957092,84.007179 290.024292,84.145226 288.335571,84.534851 
	C288.094208,84.645638 287.852875,84.756432 287.149200,85.076508 
	C287.123901,85.394348 287.098602,85.712196 286.909088,86.844803 
	C286.868134,87.392563 286.827209,87.940331 286.841370,88.430748 
	C286.841370,88.430748 286.779785,88.380402 286.401459,88.543739 
M123.324196,131.323914 
	C123.324196,131.323914 123.344902,131.284851 123.724571,131.413055 
	C123.724571,131.413055 124.092812,131.255005 124.161087,131.429016 
	C124.161087,131.429016 124.420799,131.287430 124.420799,131.287430 
	C124.420799,131.287430 124.164093,131.038177 124.224632,130.397659 
	C124.162117,129.981796 124.099602,129.565918 124.288902,128.931610 
	C124.288902,128.931610 124.605942,128.828568 124.961586,128.801056 
	C125.042137,128.715347 125.206146,128.601578 125.188446,128.548904 
	C125.120781,128.347626 124.994629,128.166000 124.862968,127.384064 
	C125.105507,126.853798 125.348038,126.323540 125.939285,125.790421 
	C126.021606,125.710617 126.187767,125.600410 126.171761,125.556259 
	C126.102081,125.364143 125.979378,125.191269 125.921997,124.251762 
	C126.204979,123.278130 126.487953,122.304497 127.193451,121.058609 
	C127.178940,120.745331 127.164429,120.432053 127.343880,120.042305 
	C127.343880,120.042305 127.507950,120.170959 128.097137,119.826462 
	C128.232330,118.984161 128.367523,118.141861 128.539795,116.645599 
	C129.023590,115.434647 129.507370,114.223686 130.447357,112.573456 
	C130.491425,112.164963 130.535507,111.756477 130.606369,110.651314 
	C131.196198,109.127098 131.786041,107.602890 132.992661,105.822891 
	C135.045792,99.238586 137.098923,92.654282 138.990952,85.286400 
	C138.978348,85.020050 138.965744,84.753693 138.513000,83.922432 
	C133.632919,83.679771 128.749878,83.271133 123.875633,83.357788 
	C123.063118,83.372238 122.288910,85.541229 121.575874,87.095947 
	C121.531044,87.366997 121.397522,87.583282 120.931183,88.202400 
	C120.933510,88.375267 120.935844,88.548126 120.885811,89.467239 
	C120.434227,90.615837 119.982651,91.764435 118.941612,93.214363 
	C118.186996,95.044487 117.311005,96.834991 116.698425,98.711479 
	C113.806725,107.569511 111.027969,116.464645 108.089432,125.306839 
	C107.727722,126.395248 107.951492,129.522827 105.003044,126.144569 
	C105.206360,122.118942 105.409668,118.093315 106.223801,113.479225 
	C106.658218,107.410362 107.120499,101.343079 107.466164,95.269165 
	C107.489929,94.851532 106.642532,94.384323 105.974480,93.055710 
	C105.997345,90.297859 106.020210,87.540009 105.779320,84.064255 
	C100.946075,83.610062 96.117874,83.055450 91.274040,82.811684 
	C90.560707,82.775787 89.773201,84.213715 88.888466,85.518494 
	C88.766670,85.661842 88.644875,85.805183 87.935112,86.258484 
	C87.808563,87.077026 87.682022,87.895561 87.535919,89.395813 
	C87.217216,90.239906 86.898506,91.084000 85.959961,92.184883 
	C85.363731,93.335251 84.590370,94.428688 84.199440,95.645050 
	C81.220032,104.915146 78.397705,114.236794 75.311249,123.470451 
	C74.756256,125.130768 73.208397,126.459213 72.044487,127.215034 
	C72.066063,126.486023 72.087639,125.757004 72.338287,124.813255 
	C72.485413,124.493004 72.428406,124.214142 72.084206,123.577545 
	C72.085884,123.256363 71.931160,123.055878 71.724709,122.313293 
	C71.829865,121.212975 71.935013,120.112648 72.496010,118.631081 
	C72.394485,117.738907 72.292961,116.846725 71.992874,115.579247 
	C71.956184,115.155563 71.919495,114.731880 72.281273,113.791931 
	C72.162697,113.184593 72.044121,112.577263 71.984619,111.179016 
	C72.028641,110.122475 72.072655,109.065926 72.621513,107.374550 
	C72.579468,104.836380 72.537422,102.298203 72.574295,98.971237 
	C72.575027,97.384926 72.575760,95.798622 72.944405,93.462578 
	C72.870491,92.922958 72.796570,92.383339 72.794106,91.278503 
	C72.777603,90.899536 72.761101,90.520569 73.077797,89.402885 
	C72.968452,88.885895 72.859108,88.368912 72.808426,87.279984 
	C72.793213,86.897537 72.778000,86.515091 73.062645,85.529808 
	C72.722343,84.984070 72.382050,84.438332 71.362633,83.467583 
	C67.900253,83.572350 64.437881,83.677109 60.244781,83.852730 
	C59.510635,83.829117 58.776489,83.805511 57.798889,83.571831 
	C57.453194,83.461281 57.182400,83.560852 56.395248,84.315765 
	C56.278503,85.217484 56.161755,86.119202 55.980072,87.807411 
	C56.009453,88.858826 56.038834,89.910233 55.812325,91.497597 
	C55.896343,91.676857 55.980366,91.856110 55.996197,92.676712 
	C55.904148,93.093399 55.812096,93.510078 55.182644,94.123009 
	C55.158745,95.095970 55.134842,96.068924 55.168930,97.970406 
	C55.138153,103.311783 55.107380,108.653160 54.662468,114.484039 
	C54.801628,115.659424 54.940784,116.834801 55.146053,118.672043 
	C55.120152,119.114105 55.094254,119.556160 54.805141,120.184212 
	C54.624760,120.506607 54.680618,120.783936 54.991119,121.951302 
	C54.985554,129.249451 54.869053,136.550583 55.065269,143.843292 
	C55.105949,145.355164 56.307690,146.835770 57.369949,148.612900 
	C57.918915,148.426697 58.467880,148.240479 59.442009,147.840240 
	C59.442009,147.840240 59.903297,147.722809 60.607307,148.054092 
	C61.101433,147.943954 61.595558,147.833817 63.011669,147.791412 
	C68.671478,147.879929 74.331291,147.968445 80.197975,148.359116 
	C80.454910,148.205566 80.711845,148.052017 81.281967,147.440338 
	C81.530090,146.956619 81.778214,146.472916 82.377731,145.651642 
	C82.377731,145.651642 82.236069,145.185425 82.435966,144.774216 
	C82.435966,144.774216 82.541199,144.329285 83.029663,143.929855 
	C83.075394,143.329865 83.121124,142.729858 83.012260,142.056046 
	C83.012260,142.056046 83.173546,142.110077 83.720970,141.770020 
	C83.978310,141.180328 84.235649,140.590652 84.751495,139.512115 
	C84.722633,139.152390 84.693771,138.792679 84.572586,138.158157 
	C84.572586,138.158157 84.780296,137.955933 85.130074,137.868805 
	C85.200447,137.772858 85.347290,137.654312 85.326866,137.585236 
	C85.265633,137.378113 85.139038,137.190292 85.044487,136.306946 
	C85.547333,134.799438 86.050179,133.291916 86.901443,131.783478 
	C86.982544,131.702667 87.147232,131.583511 87.130699,131.547485 
	C87.045425,131.361633 86.913727,131.197067 86.788383,130.343903 
	C86.854538,129.894745 86.920692,129.445602 87.014153,128.985474 
	C87.014153,128.985474 87.001839,128.954529 87.195610,128.757874 
	C87.195610,128.757874 87.463707,128.691971 87.799232,128.734436 
	C87.799232,128.734436 88.023926,128.361206 88.023926,128.361206 
	C88.023926,128.361206 87.686195,128.066132 87.686386,127.293671 
	C87.819099,126.532806 87.951805,125.771950 88.643990,124.696289 
	C88.701012,124.090012 88.758034,123.483727 89.043709,122.831345 
	C89.043709,122.831345 89.103783,123.056732 89.662941,122.926437 
	C90.561111,122.753380 91.459274,122.580322 92.358437,123.219833 
	C91.988640,130.841843 91.579536,138.462601 91.335480,146.088623 
	C91.318817,146.609329 92.539505,147.169632 93.237297,147.958511 
	C93.237297,147.958511 92.993988,148.026093 93.154930,148.353256 
	C93.445084,148.258881 93.735237,148.164505 94.439026,147.837433 
	C94.439026,147.837433 94.901039,147.728867 95.600471,148.077377 
	C96.096336,147.965820 96.592201,147.854279 97.847923,147.803497 
	C98.863380,147.778961 99.878845,147.754410 101.495529,147.987869 
	C101.697380,147.905319 101.899239,147.822769 102.966492,147.799393 
	C105.280891,147.776337 107.595299,147.753265 110.735672,148.090225 
	C113.392036,147.441147 117.284538,150.473373 118.713074,144.991302 
	C118.755562,144.814072 118.798058,144.636856 119.371384,144.041046 
	C120.012505,141.768860 120.653618,139.496658 121.553886,136.919586 
	C121.553886,136.919586 121.869980,136.674225 122.250923,136.907394 
	C122.284546,136.363281 122.318161,135.819168 122.394928,134.597672 
	C122.616890,133.722153 122.838852,132.846649 123.421951,131.761047 
	C123.421951,131.761047 123.300575,131.361267 123.324196,131.323914 
M333.483582,148.202850 
	C333.483582,148.202850 333.878143,148.075058 334.783234,147.906540 
	C337.523987,147.959213 340.264771,148.011887 343.372894,148.444031 
	C343.919922,147.985916 344.466980,147.527817 345.078278,146.533768 
	C345.169098,146.378448 345.259918,146.223114 346.002625,145.707672 
	C346.246887,143.322739 346.491119,140.937790 346.679504,137.839569 
	C346.884796,136.913620 347.090088,135.987686 347.922363,134.771545 
	C348.273010,131.839218 348.623657,128.906891 348.908783,125.230728 
	C349.083466,124.514503 349.258148,123.798286 350.003021,122.843422 
	C351.348358,120.940086 352.693695,119.036758 354.658600,116.890457 
	C355.090179,116.963600 355.521790,117.036751 356.131958,117.828987 
	C356.754089,119.879677 357.376251,121.930367 358.041687,124.581505 
	C358.056610,124.781624 358.071564,124.981743 358.457062,125.808006 
	C362.694000,126.786949 366.975861,128.349274 370.985138,124.993095 
	C370.985138,124.993095 370.851898,124.866005 371.553833,124.723396 
	C371.842987,123.904350 372.132141,123.085304 372.578552,121.571609 
	C372.927002,120.696533 373.275452,119.821465 374.067047,118.856033 
	C374.062317,118.242325 374.057587,117.628624 373.944702,116.182426 
	C373.973419,114.784668 374.002136,113.386917 374.432983,111.558998 
	C373.955231,110.700417 373.477478,109.841835 372.599487,108.606949 
	C372.424377,108.290810 372.249268,107.974670 372.010559,107.029503 
	C371.189331,106.529999 370.368103,106.030487 369.441101,105.499237 
	C369.441101,105.499237 369.371918,105.413101 369.521362,105.176895 
	C369.521362,105.176895 369.272705,104.949783 369.272705,104.949783 
	C369.272705,104.949783 369.046448,105.232590 368.269135,105.114899 
	C367.541382,104.841949 366.813629,104.568993 365.724609,103.775536 
	C363.758423,103.956688 361.792267,104.137840 359.631683,104.663040 
	C359.631683,104.663040 359.302124,104.881111 359.360077,104.919769 
	C359.360077,104.919769 359.419678,104.883659 358.726440,105.041527 
	C358.029785,105.182297 357.333099,105.323059 355.824158,105.339828 
	C354.208923,105.580971 352.593719,105.822121 350.480591,105.812279 
	C350.345367,105.684807 350.210114,105.557327 349.658783,104.841888 
	C347.567963,104.613960 345.386810,103.909752 343.410400,104.284790 
	C341.192932,104.705582 339.160675,106.102051 337.112457,107.709244 
	C336.998291,108.115135 336.884094,108.521027 336.137665,109.218346 
	C335.789215,112.154793 335.440765,115.091232 335.134186,118.826073 
	C334.892700,119.852051 334.651215,120.878029 333.840363,122.258484 
	C332.915375,128.511414 331.990417,134.764359 331.122528,141.683441 
	C330.992462,142.105667 330.862366,142.527893 330.125854,143.213364 
	C330.411560,144.781998 330.697266,146.350647 331.054260,147.901260 
	C331.054260,147.901260 331.087219,147.966980 331.126709,148.457870 
	C331.764008,148.328537 332.401306,148.199203 333.064209,148.009003 
	C333.064209,148.009003 333.090851,148.069458 333.483582,148.202850 
M410.587189,145.517258 
	C410.587189,145.517258 410.543152,145.386719 411.275848,145.559189 
	C412.113037,144.552170 412.950195,143.545151 413.869690,142.027725 
	C414.244690,141.684311 414.619659,141.340897 415.611450,140.893845 
	C416.103363,139.598511 416.595276,138.303162 417.105988,136.089417 
	C417.391571,135.218079 417.677155,134.346741 418.073395,133.007294 
	C418.393982,131.406250 418.714539,129.805191 419.496796,127.743050 
	C419.811340,127.173653 420.125885,126.604248 420.987305,125.768539 
	C420.986969,124.509514 420.986633,123.250488 420.866089,121.111526 
	C420.911255,118.745758 420.956390,116.379997 421.431763,113.520119 
	C420.929199,107.811897 417.015961,104.259941 411.274597,105.015160 
	C410.826447,104.841408 410.378296,104.667656 409.729248,103.930878 
	C408.141327,102.728027 406.549255,100.885414 404.254059,104.127159 
	C403.506500,104.055115 402.758942,103.983070 401.386047,103.458488 
	C399.933197,103.357742 398.281738,102.758026 397.062195,103.243446 
	C392.036926,105.243706 385.319824,104.528511 383.092682,111.949783 
	C382.717590,112.297005 382.342468,112.644226 381.290741,113.149429 
	C376.599030,118.319717 376.563721,124.604477 377.142548,131.763153 
	C376.945618,132.495453 376.748688,133.227753 375.939758,134.284332 
	C374.902496,136.748627 373.853699,139.214890 376.998688,140.963684 
	C376.998688,140.963684 377.058167,140.921127 376.961456,141.693909 
	C377.289886,145.846619 379.644135,147.679337 384.179138,147.540070 
	C384.518402,147.602798 384.784241,147.777359 385.190155,148.697891 
	C386.787567,148.815933 388.384979,148.933975 390.892609,148.928024 
	C394.249451,148.934052 397.606293,148.940079 401.471375,149.390396 
	C403.325470,148.680466 405.179596,147.970520 407.397491,146.887527 
	C407.731964,146.824875 408.066437,146.762207 409.099701,146.750900 
	C409.561066,146.309311 410.022461,145.867722 410.587189,145.517258 
M324.972229,145.901474 
	C325.148590,145.724030 325.179535,145.524094 324.968567,144.450287 
	C325.105865,143.326279 325.243164,142.202271 325.947113,140.824707 
	C325.525787,139.172882 325.333405,136.208282 324.644928,136.088196 
	C320.943909,135.442734 321.097687,132.328964 319.967896,129.171631 
	C320.221863,128.101425 320.475830,127.031227 321.151947,125.840370 
	C321.116516,125.231033 321.081116,124.621696 321.014740,123.259148 
	C321.201843,122.534340 321.388947,121.809532 322.026825,120.932854 
	C322.007751,120.285980 321.988647,119.639107 321.905609,118.338333 
	C322.017822,117.918434 322.130035,117.498535 322.748444,116.911064 
	C322.794403,115.871895 322.840363,114.832733 322.848328,113.003906 
	C323.086090,111.985435 323.323853,110.966965 324.071930,109.785454 
	C324.067993,108.863617 324.064087,107.941772 323.937622,106.528526 
	C323.935181,106.359726 323.932739,106.190918 323.757416,105.272179 
	C320.385529,104.899635 317.018036,104.269432 313.640808,104.212051 
	C307.885681,104.114265 306.529694,106.137695 308.027191,112.750946 
	C307.823822,113.462112 307.620453,114.173279 306.939148,115.140099 
	C306.943909,116.098015 306.948700,117.055939 307.021210,118.683983 
	C306.869385,119.100494 306.717560,119.517006 306.051758,120.132439 
	C306.039490,121.087311 306.027222,122.042183 306.062012,123.747559 
	C305.864563,124.464897 305.667084,125.182228 304.978241,126.133728 
	C304.979797,127.095856 304.981354,128.057983 305.021729,129.677979 
	C304.894470,130.093811 304.767242,130.509628 303.991455,131.310638 
	C303.875549,133.105637 303.759644,134.900650 303.774811,137.074081 
	C303.774811,137.074081 303.621063,137.443893 303.328827,137.336029 
	C303.328827,137.336029 303.192383,137.632812 303.192383,137.632812 
	C303.192383,137.632812 303.596619,137.682404 303.715149,138.441742 
	C303.714417,139.714478 303.713715,140.987198 303.448914,142.917633 
	C303.907837,143.631042 304.366760,144.344452 305.117279,145.290344 
	C305.117279,145.290344 305.185852,145.656937 305.186249,146.365143 
	C307.454895,147.261826 309.723511,148.158508 312.860596,148.937256 
	C314.901581,148.933868 316.942535,148.930481 319.440155,149.309738 
	C321.019470,148.383942 322.598785,147.458160 324.343201,146.199188 
	C324.343201,146.199188 324.677155,146.035629 324.972229,145.901474 
M198.338882,127.830673 
	C194.905701,126.964142 194.747833,129.824249 193.770279,131.804581 
	C192.216232,134.952759 190.042435,137.644836 186.155838,136.564560 
	C182.178085,135.458939 181.708557,132.110245 182.277573,128.488220 
	C182.586411,126.522514 182.770874,124.535988 182.970947,122.554771 
	C183.284454,119.450699 184.239975,117.465363 188.097397,117.639664 
	C194.868790,117.945648 201.663986,117.725113 208.636719,117.725113 
	C209.346786,113.505623 209.959869,109.862457 210.733643,105.264336 
	C202.217361,105.264336 194.582397,105.264336 186.612732,105.264336 
	C187.330246,100.264015 187.921341,96.144569 188.661591,90.985825 
	C183.268326,93.209717 178.951752,94.850906 174.784912,96.810493 
	C173.807449,97.270164 172.904602,98.728073 172.699020,99.859634 
	C170.617737,111.315269 168.421982,122.761429 166.817291,134.288055 
	C165.867035,141.113708 169.374161,145.923828 175.976227,147.876755 
	C182.882507,149.919693 189.833603,149.650070 196.513123,146.844009 
	C203.739929,143.808029 208.772629,135.851135 208.679840,127.956421 
	C205.504745,127.956421 202.329056,127.956421 198.338882,127.830673 
M154.821793,127.391495 
	C156.068008,120.295845 157.314240,113.200195 158.662064,105.526016 
	C153.966644,105.526016 150.310440,105.294060 146.714661,105.658440 
	C145.539505,105.777527 143.769043,107.302574 143.549835,108.432693 
	C141.651749,118.219002 139.642242,128.018982 138.588913,137.913162 
	C138.256699,141.033752 139.793579,146.080338 142.097336,147.388550 
	C146.641541,149.969025 152.758606,150.705078 157.174667,146.978149 
	C159.379974,145.116974 159.582886,140.883179 160.991653,136.866852 
	C154.093719,137.854385 153.239548,134.970947 154.174438,130.682953 
	C154.351440,129.871048 154.506119,129.054276 154.821793,127.391495 
M325.339874,80.830139 
	C322.275055,80.905014 318.980103,80.285049 316.195862,81.207130 
	C311.220032,82.855026 309.088379,92.509018 312.673035,95.287544 
	C316.065521,97.917122 323.165558,97.557640 326.091064,94.608170 
	C329.403717,91.268379 329.377350,85.027023 325.339874,80.830139 
M161.933746,82.331932 
	C158.500412,79.510651 154.682693,79.507629 150.803680,81.050140 
	C147.077377,82.531921 144.981720,87.424217 145.868408,91.997208 
	C146.737778,96.480804 149.993912,97.071793 153.775818,96.963760 
	C161.517029,96.742638 164.727600,91.545860 161.933746,82.331932 
M119.469017,146.483932 
	C119.469017,146.483932 119.432220,146.486008 119.469017,146.483932 
z"/>
<path fill="#020707" opacity="1.000000" stroke="none" 
	d="
M125.590576,125.793274 
	C125.348038,126.323540 125.105507,126.853798 124.696823,127.857361 
	C124.555763,128.496643 124.580849,128.662613 124.605942,128.828568 
	C124.605942,128.828568 124.288902,128.931610 123.973946,128.903442 
	C123.554291,129.678467 123.449600,130.481659 123.344902,131.284851 
	C123.344902,131.284851 123.324196,131.323914 123.131561,131.288330 
	C122.843643,131.333359 122.748367,131.413956 122.653091,131.494568 
	C122.788994,131.653427 122.924904,131.812271 123.060814,131.971130 
	C122.838852,132.846649 122.616890,133.722153 122.147621,135.100250 
	C121.890205,135.959946 121.880089,136.317093 121.869980,136.674225 
	C121.869980,136.674225 121.553886,136.919586 121.090439,137.202881 
	C120.031509,139.810669 119.436028,142.135147 118.840546,144.459625 
	C118.798058,144.636856 118.755562,144.814072 118.214729,145.186386 
	C115.114151,146.164383 112.511925,146.947296 109.909698,147.730194 
	C107.595299,147.753265 105.280891,147.776337 102.433685,147.587769 
	C101.565346,147.494049 101.229828,147.611954 100.894302,147.729858 
	C99.878845,147.754410 98.863380,147.778961 97.301743,147.574890 
	C96.137398,147.473801 95.519218,147.601334 94.901039,147.728882 
	C94.901039,147.728867 94.439026,147.837433 93.978928,147.833145 
	C93.343880,147.894608 93.168938,147.960342 92.993988,148.026093 
	C92.993988,148.026093 93.237297,147.958511 93.174820,147.391800 
	C93.072655,143.689377 92.989136,140.553467 93.003281,137.417999 
	C93.026031,132.375351 93.113289,127.333000 93.203888,121.905487 
	C93.265572,120.750298 93.296646,119.980156 93.535034,119.164017 
	C93.629036,118.663086 93.515732,118.208145 93.419327,117.508972 
	C93.473915,116.940262 93.525993,116.618103 93.884735,116.117241 
	C94.176994,113.514694 94.176994,111.093185 94.176994,108.671669 
	C93.448265,108.625412 92.719536,108.579155 91.990807,108.532898 
	C91.822052,110.053085 91.653290,111.573265 91.369667,113.474503 
	C90.537796,116.922615 89.820786,119.989677 89.103783,123.056732 
	C89.103783,123.056732 89.043709,122.831345 88.640625,122.874313 
	C88.186523,123.615211 88.135521,124.313148 88.084511,125.011086 
	C87.951805,125.771950 87.819099,126.532806 87.515472,127.795403 
	C87.344566,128.297134 87.463707,128.691971 87.463707,128.691971 
	C87.463707,128.691971 87.195610,128.757874 87.208969,128.703430 
	C87.030632,128.688324 86.838921,128.727646 86.647217,128.766968 
	C86.760429,128.843460 86.873634,128.919952 86.986847,128.996445 
	C86.920692,129.445602 86.854538,129.894745 86.611313,130.835403 
	C86.434235,131.326904 86.553017,131.784409 86.553024,131.784409 
	C86.050179,133.291916 85.547333,134.799438 84.856506,136.858948 
	C84.705780,137.592606 84.743042,137.774277 84.780296,137.955933 
	C84.780296,137.955933 84.572586,138.158157 84.430428,138.267487 
	C84.288269,138.376801 83.976852,138.596207 83.721802,138.670013 
	C83.369011,139.865906 83.271278,140.987991 83.173546,142.110077 
	C83.173546,142.110077 83.012260,142.056046 82.812744,142.267792 
	C82.589218,143.096115 82.565208,143.712708 82.541199,144.329285 
	C82.541199,144.329285 82.435966,144.774216 82.146164,144.965790 
	C81.782158,145.259399 81.623184,145.401505 81.649048,145.456207 
	C81.740692,145.649994 81.895477,145.813950 82.026337,145.989197 
	C81.778214,146.472916 81.530090,146.956619 80.864868,147.609314 
	C80.295540,147.871185 80.143318,147.964081 79.991096,148.056976 
	C74.331291,147.968445 68.671478,147.879929 62.383713,147.557617 
	C61.138271,147.456818 60.520782,147.589813 59.903297,147.722809 
	C59.903297,147.722809 59.442009,147.840240 59.045670,147.776550 
	C58.487030,147.672989 58.324730,147.633133 57.996483,147.225708 
	C57.512890,145.606735 56.937706,144.359024 56.919655,143.103302 
	C56.807583,135.306137 56.897446,127.505928 56.770519,119.709160 
	C56.641453,111.781036 56.339630,103.855713 56.113068,95.581085 
	C55.981796,94.797592 55.850922,94.362183 55.720043,93.926765 
	C55.812096,93.510078 55.904148,93.093399 56.210262,92.276115 
	C56.462608,91.750107 56.570393,91.584564 56.525654,91.507088 
	C56.408791,91.304703 56.225201,91.140862 56.068214,90.961647 
	C56.038834,89.910233 56.009453,88.858826 56.247520,87.250809 
	C58.107430,85.971588 59.699890,85.248978 61.541420,84.524353 
	C62.122635,84.520485 62.454712,84.524178 63.142826,84.629288 
	C63.736565,84.662178 63.974213,84.599220 64.516693,84.532761 
	C65.227531,84.545105 65.633537,84.560959 66.197479,84.943893 
	C68.491203,85.584862 70.626999,85.858757 72.762794,86.132645 
	C72.778000,86.515091 72.793213,86.897537 72.477806,87.570862 
	C72.346321,88.621696 72.545464,89.381653 72.744598,90.141602 
	C72.761101,90.520569 72.777603,90.899536 72.466782,91.597588 
	C72.285133,92.681885 72.430809,93.447098 72.576485,94.212311 
	C72.575760,95.798622 72.575027,97.384926 72.229919,99.552322 
	C71.962593,102.758728 72.039627,105.384056 72.116669,108.009384 
	C72.072655,109.065926 72.028641,110.122475 71.736351,111.828568 
	C71.619659,113.088142 71.751228,113.698174 71.882812,114.308197 
	C71.919495,114.731880 71.956184,115.155563 71.898453,116.121964 
	C71.882744,117.447235 71.961456,118.229782 72.040169,119.012329 
	C71.935013,120.112648 71.829865,121.212975 71.342651,122.744637 
	C71.082825,125.839409 71.205048,128.502838 71.430588,131.489044 
	C72.568497,131.358200 74.303856,131.130447 74.533646,130.417450 
	C78.657440,117.622604 82.599098,104.769058 86.579796,91.928093 
	C86.898506,91.084000 87.217216,90.239906 87.790085,88.856293 
	C88.203857,87.527359 88.363472,86.737946 88.523087,85.948532 
	C88.644875,85.805183 88.766670,85.661842 89.419067,85.199951 
	C95.314133,84.848328 100.678604,84.815239 106.043076,84.782158 
	C106.020210,87.540009 105.997345,90.297859 105.908203,93.893463 
	C105.765610,101.176704 105.689293,107.622192 105.612976,114.067688 
	C105.409668,118.093315 105.206360,122.118942 104.931908,126.888657 
	C104.860771,129.278946 104.860771,130.925140 104.860771,132.571350 
	C105.603546,132.721436 106.346321,132.871521 107.089096,133.021606 
	C111.640663,119.792816 116.354202,106.620415 119.531075,92.913033 
	C119.982651,91.764435 120.434227,90.615837 121.088638,89.068756 
	C121.342552,88.561584 121.454597,88.438019 121.432442,88.347214 
	C121.381371,88.137962 121.265106,87.944611 121.175293,87.744804 
	C121.397522,87.583282 121.531044,87.366997 121.857010,86.628189 
	C123.772308,85.622223 125.384048,84.720901 127.045135,84.618286 
	C131.002060,84.373871 134.982300,84.506828 138.953125,84.487343 
	C138.965744,84.753693 138.978348,85.020050 138.817627,85.924622 
	C136.554840,93.068123 134.465363,99.573402 132.375885,106.078682 
	C131.786041,107.602890 131.196198,109.127098 130.349136,111.209610 
	C130.058319,112.182838 130.024734,112.597786 129.991150,113.012726 
	C129.507370,114.223686 129.023590,115.434647 128.267929,117.176956 
	C127.833366,118.529198 127.670662,119.350082 127.507950,120.170959 
	C127.507950,120.170959 127.343880,120.042305 127.026566,120.209747 
	C126.729813,120.695084 126.750374,121.012978 126.770935,121.330872 
	C126.487953,122.304497 126.204979,123.278130 125.713165,124.785301 
	C125.504341,125.318840 125.590576,125.793274 125.590576,125.793274 
z"/>
<path fill="#030B0A" opacity="1.000000" stroke="none" 
	d="
M238.102203,87.044357 
	C238.054947,87.473289 238.007690,87.902229 237.858154,89.040718 
	C237.697586,94.311462 237.639282,98.872643 237.580963,103.433830 
	C237.489548,104.894524 237.398148,106.355217 237.167923,108.082520 
	C237.029114,108.349136 236.976593,108.567635 236.976593,108.567635 
	C236.976593,108.567635 237.164719,108.397240 237.164734,108.397240 
	C237.089645,112.952881 237.014557,117.508522 236.788254,122.776154 
	C236.473465,126.508919 236.309875,129.529709 236.078964,133.793793 
	C241.888458,130.245880 241.120605,124.931786 242.920135,120.949341 
	C243.216263,120.186661 243.512390,119.423988 244.101669,118.070755 
	C244.417191,116.607559 244.439560,115.734932 244.461945,114.862297 
	C244.544907,114.698967 244.627884,114.535637 245.052872,113.886559 
	C247.580017,107.004402 249.654465,100.567543 251.974945,94.220634 
	C255.913437,83.448181 253.374512,84.850136 264.793121,84.769753 
	C265.593536,84.764114 266.391785,84.452820 267.191040,84.283661 
	C267.829712,84.300385 268.468384,84.317101 269.539062,84.591347 
	C270.437347,85.219933 270.903595,85.590988 271.369873,85.962044 
	C271.350342,86.227684 271.330780,86.493332 271.218018,87.058411 
	C271.124878,87.357834 271.048340,87.562279 271.048340,87.562279 
	C271.048340,87.562279 271.223663,87.418594 271.223663,87.418594 
	C271.232971,87.999611 271.242279,88.580627 270.932617,89.886536 
	C270.716583,95.410416 270.819550,100.209389 270.922546,105.008369 
	C270.783295,107.905159 270.644043,110.801956 270.253052,114.027832 
	C270.083984,114.400925 270.166687,114.444939 270.249359,114.488953 
	C270.289978,114.747147 270.330566,115.005341 270.068420,115.800629 
	C269.989319,121.862755 268.322296,127.580765 270.647675,132.891251 
	C271.335541,132.992401 272.023438,133.093567 272.711334,133.194717 
	C273.563385,129.791382 274.415466,126.388046 275.267548,122.984718 
	C275.519318,122.234261 275.771057,121.483795 276.419250,120.312302 
	C278.640717,114.505180 280.577362,109.153427 282.248596,103.720047 
	C283.242950,100.487244 283.819855,97.126053 284.584442,93.822578 
	C284.833496,93.185532 285.082550,92.548485 285.670715,91.736603 
	C286.009827,91.561775 286.105042,91.330376 286.105042,91.330376 
	C286.105042,91.330376 285.781158,91.496056 285.781158,91.496056 
	C285.763947,91.211868 285.746765,90.927689 285.994446,90.150368 
	C286.468414,89.373299 286.439362,89.116264 286.172119,88.886116 
	C286.172119,88.886116 286.401459,88.543739 286.717163,88.557938 
	C287.032837,88.572128 287.137878,88.314888 287.137878,88.314888 
	C287.137878,88.314888 286.786255,88.488091 286.786255,88.488091 
	C286.827209,87.940331 286.868134,87.392563 287.201050,86.312073 
	C287.752777,85.503960 287.792297,85.199921 287.611542,84.867218 
	C287.852875,84.756432 288.094208,84.645638 288.794128,84.728127 
	C290.184998,84.704338 291.117340,84.487274 292.049683,84.270210 
	C292.463013,84.288765 292.876312,84.307320 293.977295,84.474297 
	C295.471191,84.500328 296.277405,84.377930 297.083618,84.255539 
	C298.457275,84.278351 299.830933,84.301163 301.505127,84.605652 
	C302.262360,86.282471 302.719025,87.677612 303.175720,89.072762 
	C303.047607,89.425186 302.919495,89.777611 302.418701,90.569275 
	C300.579590,95.764862 299.113220,100.521210 297.646851,105.277557 
	C297.646851,105.277557 297.455627,105.493820 297.242920,105.459366 
	C296.934113,105.497589 296.837982,105.570267 296.741852,105.642944 
	C296.835785,105.718330 296.938110,105.861267 297.021332,105.850906 
	C297.112366,105.839569 297.185730,105.686546 297.266815,105.595276 
	C297.157562,106.081039 297.048279,106.566795 296.569946,107.528435 
	C295.783051,109.672340 295.365204,111.340355 294.947327,113.008362 
	C294.834747,113.356377 294.722168,113.704384 294.280884,114.498077 
	C293.575989,116.387573 293.199829,117.831390 292.823669,119.275223 
	C292.647644,119.684898 292.471588,120.094582 291.953369,121.047195 
	C289.619843,127.807373 287.628510,134.024597 285.637146,140.241821 
	C285.555389,140.419861 285.473663,140.597900 285.131348,141.032196 
	C284.870819,141.288452 284.671326,141.700760 284.671326,141.700760 
	C284.671326,141.700760 284.982513,141.992294 284.982483,141.992294 
	C284.865509,142.344345 284.748535,142.696411 284.272125,143.558655 
	C282.777039,145.140244 281.645111,147.130661 280.505127,147.135269 
	C272.570404,147.167435 264.633942,146.787750 256.698059,146.540100 
	C256.744781,146.275528 256.761292,146.009094 256.931519,145.277069 
	C257.105835,142.872055 257.096130,140.930756 257.086426,138.989471 
	C257.233398,136.090591 257.380371,133.191711 257.848938,129.612427 
	C258.607880,122.486710 259.045258,116.041389 259.482605,109.596077 
	C258.792786,109.472260 258.102966,109.348442 257.413147,109.224632 
	C256.553619,112.912430 255.694077,116.600235 254.834534,120.288040 
	C254.629745,120.962585 254.424957,121.637131 253.921463,122.890411 
	C253.454315,124.371399 253.285858,125.273643 253.117401,126.175888 
	C252.924759,126.745674 252.732132,127.315460 252.294434,128.189789 
	C252.049377,128.494339 251.964294,128.704636 251.964294,128.704636 
	C251.964294,128.704636 252.148193,128.554550 252.148193,128.554550 
	C252.123016,128.793610 252.097839,129.032684 251.857483,129.849884 
	C251.560196,131.016907 251.478088,131.605789 251.395981,132.194672 
	C251.395981,132.194672 251.232239,132.199890 250.894974,132.401154 
	C249.988831,135.467438 249.419937,138.332443 248.851044,141.197449 
	C248.734314,141.445633 248.617569,141.693832 248.294861,142.206406 
	C248.088913,142.470795 247.978546,142.722046 247.978546,142.722046 
	C247.978546,142.722046 248.215775,142.564041 248.215775,142.564041 
	C248.156281,142.798355 248.096771,143.032669 247.773041,143.936066 
	C245.978592,145.549973 244.517120,147.138321 242.904343,147.310623 
	C239.118118,147.715164 235.259521,147.434692 231.430237,147.445343 
	C222.129486,147.471207 222.130875,147.474167 220.759201,138.926239 
	C220.742004,138.819138 220.490906,138.749557 220.348999,138.662460 
	C220.494507,129.251114 220.640015,119.839775 220.948410,109.760895 
	C221.056808,102.397278 221.002350,95.701195 220.947876,89.005112 
	C220.999695,87.978348 221.051498,86.951576 221.563110,85.486443 
	C227.348114,85.018280 232.673325,84.988495 237.998535,84.958702 
	C238.013153,85.125725 238.027771,85.292747 237.977661,85.973511 
	C237.976044,86.672951 238.039124,86.858658 238.102203,87.044357 
z"/>
<path fill="#050E0E" opacity="1.000000" stroke="none" 
	d="
M198.746124,127.893547 
	C202.329056,127.956421 205.504745,127.956421 208.679840,127.956421 
	C208.772629,135.851135 203.739929,143.808029 196.513123,146.844009 
	C189.833603,149.650070 182.882507,149.919693 175.976227,147.876755 
	C169.374161,145.923828 165.867035,141.113708 166.817291,134.288055 
	C168.421982,122.761429 170.617737,111.315269 172.699020,99.859634 
	C172.904602,98.728073 173.807449,97.270164 174.784912,96.810493 
	C178.951752,94.850906 183.268326,93.209717 188.661591,90.985825 
	C187.921341,96.144569 187.330246,100.264015 186.612732,105.264336 
	C194.582397,105.264336 202.217361,105.264336 210.733643,105.264336 
	C209.959869,109.862457 209.346786,113.505623 208.636719,117.725113 
	C201.663986,117.725113 194.868790,117.945648 188.097397,117.639664 
	C184.239975,117.465363 183.284454,119.450699 182.970947,122.554771 
	C182.770874,124.535988 182.586411,126.522514 182.277573,128.488220 
	C181.708557,132.110245 182.178085,135.458939 186.155838,136.564560 
	C190.042435,137.644836 192.216232,134.952759 193.770279,131.804581 
	C194.747833,129.824249 194.905701,126.964142 198.746124,127.893547 
z"/>
<path fill="#040C0C" opacity="1.000000" stroke="none" 
	d="
M421.001556,114.014236 
	C420.956390,116.379997 420.911255,118.745758 420.734192,121.815735 
	C420.318909,123.342285 420.035522,124.164612 419.534210,125.163101 
	C418.532684,126.092575 417.749054,126.845879 416.605225,127.661697 
	C415.516663,127.690865 414.788269,127.657524 413.954224,127.478745 
	C413.546509,127.426346 413.244507,127.519371 412.608582,127.674316 
	C411.849670,127.873695 411.424683,128.011139 410.759888,128.024155 
	C410.353424,127.831451 410.186737,127.763168 409.861908,127.508308 
	C409.130310,127.447609 408.556824,127.573494 407.579529,127.776093 
	C405.809601,127.817078 404.443481,127.781349 402.980896,127.434021 
	C400.547882,127.292900 398.211304,127.463371 395.584290,127.684204 
	C394.902679,127.710648 394.511505,127.686737 394.184296,127.381721 
	C395.167267,125.943062 396.086304,124.785507 397.362793,123.399826 
	C399.204803,123.134659 400.805115,123.432632 402.142700,122.970375 
	C403.606079,122.464630 404.826599,121.256226 406.152985,120.354050 
	C404.910675,118.838455 403.296661,115.863632 402.492584,116.068451 
	C399.545746,116.819061 396.868317,118.627220 393.849792,120.203979 
	C393.590973,120.742081 393.571747,121.113388 393.632629,121.603882 
	C393.801056,121.902740 393.822754,122.090118 393.585693,122.732590 
	C393.253815,124.773109 393.114105,126.366257 392.780151,128.291626 
	C390.896667,132.458817 391.973816,136.085938 395.583374,137.256348 
	C398.366852,138.158905 402.231812,137.378677 403.523651,133.049515 
	C404.200073,132.812454 404.579834,132.657074 405.413269,132.611572 
	C409.898865,132.972763 413.930786,133.224075 417.962708,133.475403 
	C417.677155,134.346741 417.391571,135.218079 416.851532,136.765686 
	C416.062958,138.627136 415.528809,139.812317 414.994659,140.997482 
	C414.619659,141.340897 414.244690,141.684311 413.520874,142.367249 
	C412.295776,143.600082 411.419464,144.493408 410.543152,145.386719 
	C410.543152,145.386719 410.587189,145.517258 410.212830,145.511353 
	C409.359283,145.903488 408.880096,146.301498 408.400909,146.699524 
	C408.066437,146.762207 407.731964,146.824875 406.956421,146.981354 
	C404.664612,147.698807 402.813873,148.322449 400.963135,148.946106 
	C397.606293,148.940079 394.249451,148.934052 390.236816,148.796005 
	C388.046234,148.463898 386.511444,148.263824 384.976624,148.063751 
	C384.784241,147.777359 384.518402,147.602798 383.754578,147.283539 
	C381.239380,144.991714 379.148773,142.956421 377.058167,140.921127 
	C377.058167,140.921127 376.998688,140.963684 377.098755,140.522629 
	C376.983124,138.041077 376.767456,136.000565 376.551788,133.960068 
	C376.748688,133.227753 376.945618,132.495453 377.281250,131.159119 
	C378.935760,124.700546 380.451569,118.846001 381.967377,112.991455 
	C382.342468,112.644226 382.717590,112.297005 383.457550,111.624344 
	C388.746399,106.032059 395.498260,105.265396 402.011383,103.911026 
	C402.758942,103.983070 403.506500,104.055115 404.890930,104.206963 
	C406.995239,104.355812 408.462708,104.424858 409.930145,104.493904 
	C410.378296,104.667656 410.826447,104.841408 411.812500,105.200470 
	C415.234131,108.261932 418.117828,111.138084 421.001556,114.014236 
z"/>
<path fill="#040E0D" opacity="1.000000" stroke="none" 
	d="
M373.623901,118.946381 
	C373.275452,119.821465 372.927002,120.696533 372.220520,122.076881 
	C371.525604,123.343437 371.188751,124.104721 370.851898,124.866005 
	C370.851898,124.866005 370.985138,124.993095 370.488586,124.968994 
	C366.023529,125.023880 362.055023,125.102875 358.086487,125.181862 
	C358.071564,124.981743 358.056610,124.781624 358.318054,124.050079 
	C359.411285,120.682976 360.438965,117.760437 355.953369,117.109894 
	C355.521790,117.036751 355.090179,116.963600 354.009216,116.972305 
	C350.607147,118.122917 348.759033,119.781021 349.432861,123.082069 
	C349.258148,123.798286 349.083466,124.514503 348.724518,125.811081 
	C348.125275,129.281540 347.710327,132.171631 347.295380,135.061737 
	C347.090088,135.987686 346.884796,136.913620 346.424561,138.358826 
	C345.896637,141.274658 345.623688,143.671219 345.350769,146.067780 
	C345.259918,146.223114 345.169098,146.378448 344.769470,146.870422 
	C343.975647,147.492920 343.490570,147.778748 343.005524,148.064575 
	C340.264771,148.011887 337.523987,147.959213 334.292938,147.831116 
	C333.802643,147.755676 333.329437,147.707870 333.329437,147.707870 
	C333.329437,147.707870 333.090851,148.069458 333.090851,148.069458 
	C333.090851,148.069458 333.064209,148.009003 332.743958,147.888565 
	C331.978180,147.834412 331.532715,147.900696 331.087219,147.966980 
	C331.087219,147.966980 331.054260,147.901260 330.971375,147.495575 
	C330.836395,145.709961 330.784332,144.330032 330.732269,142.950119 
	C330.862366,142.527893 330.992462,142.105667 331.317993,141.035110 
	C332.478851,134.225861 333.444275,128.064926 334.409698,121.903999 
	C334.651215,120.878029 334.892700,119.852051 335.335571,118.177475 
	C335.947968,114.661560 336.358948,111.794243 336.769897,108.926926 
	C336.884094,108.521027 336.998291,108.115135 337.385498,107.211533 
	C341.797302,106.285828 345.936096,105.857841 350.074890,105.429848 
	C350.210114,105.557327 350.345367,105.684807 350.642822,106.222458 
	C350.757111,107.689857 350.709137,108.747078 350.629211,110.509026 
	C352.998901,108.518822 354.817657,106.991318 356.636444,105.463821 
	C357.333099,105.323059 358.029785,105.182297 358.946411,105.058891 
	C359.166382,105.076256 359.463531,105.195824 359.463531,105.195824 
	C359.463531,105.195824 359.302124,104.881111 359.302124,104.881111 
	C359.302124,104.881111 359.631683,104.663040 360.168213,104.589867 
	C362.498444,104.443146 364.292175,104.369598 366.085876,104.296036 
	C366.813629,104.568993 367.541382,104.841949 368.702332,105.285393 
	C369.135529,105.455887 369.371918,105.413101 369.371918,105.413101 
	C369.371918,105.413101 369.441101,105.499237 369.560120,105.816025 
	C370.477448,106.641388 371.275818,107.149963 372.074158,107.658539 
	C372.249268,107.974670 372.424377,108.290810 372.749695,109.124634 
	C373.276855,110.424599 373.653870,111.206879 374.030853,111.989159 
	C374.002136,113.386917 373.973419,114.784668 373.819672,116.747803 
	C373.671051,117.857574 373.647461,118.401978 373.623901,118.946381 
z"/>
<path fill="#061111" opacity="1.000000" stroke="none" 
	d="
M154.746460,127.815620 
	C154.506119,129.054276 154.351440,129.871048 154.174438,130.682953 
	C153.239548,134.970947 154.093719,137.854385 160.991653,136.866852 
	C159.582886,140.883179 159.379974,145.116974 157.174667,146.978149 
	C152.758606,150.705078 146.641541,149.969025 142.097336,147.388550 
	C139.793579,146.080338 138.256699,141.033752 138.588913,137.913162 
	C139.642242,128.018982 141.651749,118.219002 143.549835,108.432693 
	C143.769043,107.302574 145.539505,105.777527 146.714661,105.658440 
	C150.310440,105.294060 153.966644,105.526016 158.662064,105.526016 
	C157.314240,113.200195 156.068008,120.295845 154.746460,127.815620 
z"/>
<path fill="#050E0D" opacity="1.000000" stroke="none" 
	d="
M322.242249,117.078644 
	C322.130035,117.498535 322.017822,117.918434 321.728271,118.876587 
	C321.559296,119.971474 321.567688,120.528099 321.576080,121.084732 
	C321.388947,121.809532 321.201843,122.534340 320.851288,123.776268 
	C320.701813,124.849266 320.715790,125.405144 320.729797,125.961021 
	C320.475830,127.031227 320.221863,128.101425 319.749146,129.889404 
	C318.873749,133.147903 317.814850,136.444565 321.681793,136.625687 
	C325.303162,136.795303 324.746185,139.132690 325.380493,141.078262 
	C325.243164,142.202271 325.105865,143.326279 324.848633,144.920990 
	C324.533936,145.592026 324.516754,145.806671 324.677155,146.035629 
	C324.677155,146.035629 324.343201,146.199188 323.938293,146.374268 
	C322.016785,147.341919 320.500153,148.134506 318.983521,148.927094 
	C316.942535,148.930481 314.901581,148.933868 312.230591,148.799866 
	C309.462311,147.660629 307.324097,146.658783 305.185852,145.656921 
	C305.185852,145.656937 305.117279,145.290344 304.980774,144.861511 
	C304.467163,143.708435 304.090088,142.984177 303.713013,142.259933 
	C303.713715,140.987198 303.714417,139.714478 303.696350,138.006042 
	C303.677551,137.570358 303.621063,137.443893 303.621063,137.443893 
	C303.621063,137.443893 303.774811,137.074081 303.900696,136.616760 
	C304.231018,134.414795 304.435486,132.670120 304.639984,130.925461 
	C304.767242,130.509628 304.894470,130.093811 305.189819,129.171570 
	C305.395142,127.743301 305.432404,126.821434 305.469604,125.899567 
	C305.667084,125.182228 305.864563,124.464897 306.250122,123.251732 
	C306.480743,121.815109 306.523254,120.874321 306.565765,119.933525 
	C306.717560,119.517006 306.869385,119.100494 307.162537,118.067558 
	C307.341614,116.595573 307.379333,115.740005 307.417053,114.884445 
	C307.620453,114.173279 307.823822,113.462112 308.199463,112.163437 
	C309.703247,109.690170 308.038605,105.763863 312.324615,105.877174 
	C316.191711,105.979408 320.061615,105.977875 323.930267,106.022110 
	C323.932739,106.190918 323.935181,106.359726 323.824219,106.978912 
	C323.661072,108.269020 323.611328,109.108757 323.561584,109.948494 
	C323.323853,110.966965 323.086090,111.985435 322.627930,113.519440 
	C322.352448,115.049522 322.297363,116.064087 322.242249,117.078644 
z"/>
<path fill="#071414" opacity="1.000000" stroke="none" 
	d="
M325.687164,81.021988 
	C329.377350,85.027023 329.403717,91.268379 326.091064,94.608170 
	C323.165558,97.557640 316.065521,97.917122 312.673035,95.287544 
	C309.088379,92.509018 311.220032,82.855026 316.195862,81.207130 
	C318.980103,80.285049 322.275055,80.905014 325.687164,81.021988 
z"/>
<path fill="#061313" opacity="1.000000" stroke="none" 
	d="
M162.161743,82.632538 
	C164.727600,91.545860 161.517029,96.742638 153.775818,96.963760 
	C149.993912,97.071793 146.737778,96.480804 145.868408,91.997208 
	C144.981720,87.424217 147.077377,82.531921 150.803680,81.050140 
	C154.682693,79.507629 158.500412,79.510651 162.161743,82.632538 
z"/>
<path fill="#25625F" opacity="1.000000" stroke="none" 
	d="
M56.113461,95.929169 
	C56.339630,103.855713 56.641453,111.781036 56.770519,119.709160 
	C56.897446,127.505928 56.807583,135.306137 56.919655,143.103302 
	C56.937706,144.359024 57.512890,145.606735 57.710400,147.427734 
	C57.384956,148.108490 57.179642,148.219635 56.974327,148.330795 
	C56.307690,146.835770 55.105949,145.355164 55.065269,143.843292 
	C54.869053,136.550583 54.985554,129.249451 55.070683,121.235275 
	C55.122948,120.345573 55.095650,120.171898 55.068356,119.998222 
	C55.094254,119.556160 55.120152,119.114105 55.202850,117.944885 
	C55.198635,116.143326 55.137619,115.068932 55.076607,113.994537 
	C55.107380,108.653160 55.138153,103.311783 55.308647,97.319260 
	C55.670067,96.421799 55.891762,96.175484 56.113461,95.929169 
z"/>
<path fill="#4EC5BC" opacity="1.000000" stroke="none" 
	d="
M119.236343,93.063698 
	C116.354202,106.620415 111.640663,119.792816 107.089096,133.021606 
	C106.346321,132.871521 105.603546,132.721436 104.860771,132.571350 
	C104.860771,130.925140 104.860771,129.278946 105.037117,127.315323 
	C107.951492,129.522827 107.727722,126.395248 108.089432,125.306839 
	C111.027969,116.464645 113.806725,107.569511 116.698425,98.711479 
	C117.311005,96.834991 118.186996,95.044487 119.236343,93.063698 
z"/>
<path fill="#4EC5BC" opacity="1.000000" stroke="none" 
	d="
M86.269882,92.056488 
	C82.599098,104.769058 78.657440,117.622604 74.533646,130.417450 
	C74.303856,131.130447 72.568497,131.358200 71.612000,131.112701 
	C71.833046,129.589371 71.975990,128.765121 72.118942,127.940887 
	C73.208397,126.459213 74.756256,125.130768 75.311249,123.470451 
	C78.397705,114.236794 81.220032,104.915146 84.199440,95.645050 
	C84.590370,94.428688 85.363731,93.335251 86.269882,92.056488 
z"/>
<path fill="#3FA7A0" opacity="1.000000" stroke="none" 
	d="
M220.163849,139.030869 
	C220.490906,138.749557 220.742004,138.819138 220.759201,138.926239 
	C222.130875,147.474167 222.129486,147.471207 231.430237,147.445343 
	C235.259521,147.434692 239.118118,147.715164 242.904343,147.310623 
	C244.517120,147.138321 245.978592,145.549973 247.757050,144.298340 
	C249.190170,147.168503 247.100723,148.540955 244.693085,148.632324 
	C237.430115,148.907959 230.145187,148.910370 222.884460,148.623459 
	C221.745987,148.578476 220.085571,146.625473 219.741882,145.280014 
	C219.276657,143.458771 219.850571,141.372086 220.163849,139.030869 
z"/>
<path fill="#3A9089" opacity="1.000000" stroke="none" 
	d="
M266.836426,84.090195 
	C266.391785,84.452820 265.593536,84.764114 264.793121,84.769753 
	C253.374512,84.850136 255.913437,83.448181 251.974945,94.220634 
	C249.654465,100.567543 247.580017,107.004402 245.130890,113.623070 
	C247.643372,104.567810 250.341797,95.265167 253.306915,86.048317 
	C253.633926,85.031845 255.443253,83.955254 256.641357,83.859322 
	C259.899628,83.598434 263.198853,83.848923 266.836426,84.090195 
z"/>
<path fill="#3A9089" opacity="1.000000" stroke="none" 
	d="
M255.132477,120.129868 
	C255.694077,116.600235 256.553619,112.912430 257.413147,109.224632 
	C258.102966,109.348442 258.792786,109.472260 259.482605,109.596077 
	C259.045258,116.041389 258.607880,122.486710 257.893433,129.189209 
	C257.513123,126.729179 257.501038,124.002625 257.224701,121.303116 
	C257.173523,120.803314 256.055847,120.412697 255.132477,120.129868 
z"/>
<path fill="#25625F" opacity="1.000000" stroke="none" 
	d="
M93.173286,122.290520 
	C93.113289,127.333000 93.026031,132.375351 93.003281,137.417999 
	C92.989136,140.553467 93.072655,143.689377 93.148537,147.268311 
	C92.539505,147.169632 91.318817,146.609329 91.335480,146.088623 
	C91.579536,138.462601 91.988640,130.841843 92.557053,122.752640 
	C92.755661,122.285446 93.173286,122.290520 93.173286,122.290520 
z"/>
<path fill="#3A9089" opacity="1.000000" stroke="none" 
	d="
M256.643372,146.921768 
	C264.633942,146.787750 272.570404,147.167435 280.505127,147.135269 
	C281.645111,147.130661 282.777039,145.140244 284.188965,143.824219 
	C283.296387,145.244659 282.204315,148.279831 280.946228,148.350281 
	C273.334137,148.776627 265.683838,148.547531 258.047394,148.449768 
	C257.556366,148.443466 257.074738,147.702591 256.643372,146.921768 
z"/>
<path fill="#3A9089" opacity="1.000000" stroke="none" 
	d="
M274.987396,123.209183 
	C274.415466,126.388046 273.563385,129.791382 272.711334,133.194717 
	C272.023438,133.093567 271.335541,132.992401 270.647675,132.891251 
	C268.322296,127.580765 269.989319,121.862755 270.105042,116.190964 
	C270.707520,120.464981 270.970581,124.885765 271.233673,129.306549 
	C271.525970,129.357529 271.818268,129.408524 272.110565,129.459503 
	C272.976135,127.450890 273.841705,125.442268 274.987396,123.209183 
z"/>
<path fill="#3A9089" opacity="1.000000" stroke="none" 
	d="
M284.307190,94.017166 
	C283.819855,97.126053 283.242950,100.487244 282.248596,103.720047 
	C280.577362,109.153427 278.640717,114.505180 276.483795,120.022392 
	C278.777863,111.506256 281.403900,102.859001 284.307190,94.017166 
z"/>
<path fill="#4CC1B8" opacity="1.000000" stroke="none" 
	d="
M323.843842,105.647141 
	C320.061615,105.977875 316.191711,105.979408 312.324615,105.877174 
	C308.038605,105.763863 309.703247,109.690170 308.169800,111.789658 
	C306.529694,106.137695 307.885681,104.114265 313.640808,104.212051 
	C317.018036,104.269432 320.385529,104.899635 323.843842,105.647141 
z"/>
<path fill="#3FA7A0" opacity="1.000000" stroke="none" 
	d="
M242.651276,121.160347 
	C241.120605,124.931786 241.888458,130.245880 236.078964,133.793793 
	C236.309875,129.529709 236.473465,126.508919 236.817688,123.245560 
	C237.429077,124.723557 237.859818,126.444130 238.473602,128.895889 
	C239.964813,126.025291 241.173615,123.698326 242.651276,121.160347 
z"/>
<path fill="#50CEC5" opacity="1.000000" stroke="none" 
	d="
M414.059906,127.624176 
	C414.788269,127.657524 415.516663,127.690865 416.934021,127.811111 
	C418.093689,128.000061 418.564392,128.102097 419.035095,128.204147 
	C418.714539,129.805191 418.393982,131.406250 418.018066,133.241348 
	C413.930786,133.224075 409.898865,132.972763 405.611633,132.313477 
	C408.356201,131.430786 411.356110,130.956055 415.426117,130.311966 
	C413.221771,129.234619 412.110748,128.691605 410.999695,128.148590 
	C411.424683,128.011139 411.849670,127.873695 412.886841,127.775406 
	C413.685974,127.751106 413.872925,127.687645 414.059906,127.624176 
z"/>
<path fill="#4EC5BC" opacity="1.000000" stroke="none" 
	d="
M105.918396,113.773453 
	C105.689293,107.622192 105.765610,101.176704 106.021103,94.335693 
	C106.642532,94.384323 107.489929,94.851532 107.466164,95.269165 
	C107.120499,101.343079 106.658218,107.410362 105.918396,113.773453 
z"/>
<path fill="#50CEC5" opacity="1.000000" stroke="none" 
	d="
M401.698730,103.684753 
	C395.498260,105.265396 388.746399,106.032059 383.507446,111.369011 
	C385.319824,104.528511 392.036926,105.243706 397.062195,103.243446 
	C398.281738,102.758026 399.933197,103.357742 401.698730,103.684753 
z"/>
<path fill="#4EC5BC" opacity="1.000000" stroke="none" 
	d="
M138.733063,84.204887 
	C134.982300,84.506828 131.002060,84.373871 127.045135,84.618286 
	C125.384048,84.720901 123.772308,85.622223 121.817566,86.437531 
	C122.288910,85.541229 123.063118,83.372238 123.875633,83.357788 
	C128.749878,83.271133 133.632919,83.679771 138.733063,84.204887 
z"/>
<path fill="#4EC5BC" opacity="1.000000" stroke="none" 
	d="
M132.684280,105.950790 
	C134.465363,99.573402 136.554840,93.068123 138.898193,86.316406 
	C137.098923,92.654282 135.045792,99.238586 132.684280,105.950790 
z"/>
<path fill="#4EC5BC" opacity="1.000000" stroke="none" 
	d="
M105.911194,84.423203 
	C100.678604,84.815239 95.314133,84.848328 89.484833,84.925568 
	C89.773201,84.213715 90.560707,82.775787 91.274040,82.811684 
	C96.117874,83.055450 100.946075,83.610062 105.911194,84.423203 
z"/>
<path fill="#3FA7A0" opacity="1.000000" stroke="none" 
	d="
M220.709869,89.340370 
	C221.002350,95.701195 221.056808,102.397278 220.884094,109.334015 
	C220.595230,102.941650 220.533554,96.308640 220.709869,89.340370 
z"/>
<path fill="#50CEC5" opacity="1.000000" stroke="none" 
	d="
M381.629059,113.070442 
	C380.451569,118.846001 378.935760,124.700546 377.218384,130.780609 
	C376.563721,124.604477 376.599030,118.319717 381.629059,113.070442 
z"/>
<path fill="#3FA7A0" opacity="1.000000" stroke="none" 
	d="
M237.875458,84.585800 
	C232.673325,84.988495 227.348114,85.018280 221.569489,85.100586 
	C222.622009,84.521492 224.130081,83.355400 225.633469,83.361427 
	C229.674179,83.377632 233.712891,83.894699 237.875458,84.585800 
z"/>
<path fill="#4CC0B8" opacity="1.000000" stroke="none" 
	d="
M334.125031,122.081238 
	C333.444275,128.064926 332.478851,134.225861 331.289429,140.702026 
	C331.990417,134.764359 332.915375,128.511414 334.125031,122.081238 
z"/>
<path fill="#3A9089" opacity="1.000000" stroke="none" 
	d="
M285.908875,140.049988 
	C287.628510,134.024597 289.619843,127.807373 291.878174,121.373169 
	C290.156952,127.390175 288.168762,133.624176 285.908875,140.049988 
z"/>
<path fill="#50CEC5" opacity="1.000000" stroke="none" 
	d="
M421.216675,113.767181 
	C418.117828,111.138084 415.234131,108.261932 412.178375,105.175316 
	C417.015961,104.259941 420.929199,107.811897 421.216675,113.767181 
z"/>
<path fill="#3A9089" opacity="1.000000" stroke="none" 
	d="
M271.139709,104.664810 
	C270.819550,100.209389 270.716583,95.410416 270.908875,90.322327 
	C271.255035,94.795898 271.305969,99.558571 271.139709,104.664810 
z"/>
<path fill="#4CC1B8" opacity="1.000000" stroke="none" 
	d="
M325.663818,140.951477 
	C324.746185,139.132690 325.303162,136.795303 321.681793,136.625687 
	C317.814850,136.444565 318.873749,133.147903 319.765533,130.305328 
	C321.097687,132.328964 320.943909,135.442734 324.644928,136.088196 
	C325.333405,136.208282 325.525787,139.172882 325.663818,140.951477 
z"/>
<path fill="#4CC0B8" opacity="1.000000" stroke="none" 
	d="
M349.866821,105.135872 
	C345.936096,105.857841 341.797302,106.285828 337.353149,106.893929 
	C339.160675,106.102051 341.192932,104.705582 343.410400,104.284790 
	C345.386810,103.909752 347.567963,104.613960 349.866821,105.135872 
z"/>
<path fill="#3A9089" opacity="1.000000" stroke="none" 
	d="
M297.921143,105.085785 
	C299.113220,100.521210 300.579590,95.764862 302.347321,90.841507 
	C301.164246,95.414330 299.679871,100.154175 297.921143,105.085785 
z"/>
<path fill="#4CC0B8" opacity="1.000000" stroke="none" 
	d="
M358.271790,125.494934 
	C362.055023,125.102875 366.023529,125.023880 370.429932,124.898193 
	C366.975861,128.349274 362.694000,126.786949 358.271790,125.494934 
z"/>
<path fill="#4EC5BC" opacity="1.000000" stroke="none" 
	d="
M93.203888,121.905487 
	C93.173286,122.290520 92.755661,122.285446 92.556549,122.346359 
	C91.459274,122.580322 90.561111,122.753380 89.383362,122.991585 
	C89.820786,119.989677 90.537796,116.922615 91.661545,113.630386 
	C92.576363,114.369560 93.084419,115.333916 93.592476,116.298271 
	C93.525993,116.618103 93.473915,116.940262 93.311150,117.868591 
	C93.233292,118.718300 93.280510,118.964157 93.327721,119.210007 
	C93.296646,119.980156 93.265572,120.750298 93.203888,121.905487 
z"/>
<path fill="#3FA7A0" opacity="1.000000" stroke="none" 
	d="
M237.772858,103.005798 
	C237.639282,98.872643 237.697586,94.311462 237.909058,89.361557 
	C238.029755,93.507805 237.997253,98.042786 237.772858,103.005798 
z"/>
<path fill="#4CC0B8" opacity="1.000000" stroke="none" 
	d="
M336.453796,109.072632 
	C336.358948,111.794243 335.947968,114.661560 335.314636,117.778275 
	C335.440765,115.091232 335.789215,112.154793 336.453796,109.072632 
z"/>
<path fill="#50CEC5" opacity="1.000000" stroke="none" 
	d="
M377.009827,141.307526 
	C379.148773,142.956421 381.239380,144.991714 383.511353,147.299347 
	C379.644135,147.679337 377.289886,145.846619 377.009827,141.307526 
z"/>
<path fill="#4CC0B8" opacity="1.000000" stroke="none" 
	d="
M347.608887,134.916641 
	C347.710327,132.171631 348.125275,129.281540 348.757263,126.182999 
	C348.623657,128.906891 348.273010,131.839218 347.608887,134.916641 
z"/>
<path fill="#4CC0B8" opacity="1.000000" stroke="none" 
	d="
M356.230286,105.401825 
	C354.817657,106.991318 352.998901,108.518822 350.629211,110.509026 
	C350.709137,108.747078 350.757111,107.689857 350.891785,106.347946 
	C352.593719,105.822121 354.208923,105.580971 356.230286,105.401825 
z"/>
<path fill="#25625F" opacity="1.000000" stroke="none" 
	d="
M72.369087,107.691971 
	C72.039627,105.384056 71.962593,102.758728 72.190460,99.946716 
	C72.537422,102.298203 72.579468,104.836380 72.369087,107.691971 
z"/>
<path fill="#4CC0B8" opacity="1.000000" stroke="none" 
	d="
M356.042664,117.469437 
	C360.438965,117.760437 359.411285,120.682976 358.296387,123.749847 
	C357.376251,121.930367 356.754089,119.879677 356.042664,117.469437 
z"/>
<path fill="#4CC0B8" opacity="1.000000" stroke="none" 
	d="
M349.717957,122.962746 
	C348.759033,119.781021 350.607147,118.122917 353.699463,117.093796 
	C352.693695,119.036758 351.348358,120.940086 349.717957,122.962746 
z"/>
<path fill="#4EC5BC" opacity="1.000000" stroke="none" 
	d="
M66.039551,84.576813 
	C65.633537,84.560959 65.227531,84.545105 64.363541,84.395844 
	C63.532616,84.352776 63.159672,84.443100 62.786732,84.533432 
	C62.454712,84.524178 62.122635,84.520485 61.481445,84.330055 
	C61.172401,84.137772 60.975506,83.781876 60.975506,83.781876 
	C64.437881,83.677109 67.900253,83.572350 71.315964,83.741547 
	C69.526047,84.202606 67.782799,84.389709 66.039551,84.576813 
z"/>
<path fill="#3FA7A0" opacity="1.000000" stroke="none" 
	d="
M249.112854,140.993439 
	C249.419937,138.332443 249.988831,135.467438 250.886383,132.482635 
	C250.601608,135.171692 249.988144,137.980560 249.112854,140.993439 
z"/>
<path fill="#50CEC5" opacity="1.000000" stroke="none" 
	d="
M376.245789,134.122192 
	C376.767456,136.000565 376.983124,138.041077 377.135162,140.519547 
	C373.853699,139.214890 374.902496,136.748627 376.245789,134.122192 
z"/>
<path fill="#25625F" opacity="1.000000" stroke="none" 
	d="
M66.197479,84.943893 
	C67.782799,84.389709 69.526047,84.202606 71.655525,83.954048 
	C72.382050,84.438332 72.722343,84.984070 72.912720,85.831223 
	C70.626999,85.858757 68.491203,85.584862 66.197479,84.943893 
z"/>
<path fill="#25625F" opacity="1.000000" stroke="none" 
	d="
M72.081711,127.577957 
	C71.975990,128.765121 71.833046,129.589371 71.508682,130.789948 
	C71.205048,128.502838 71.082825,125.839409 71.290321,123.076035 
	C71.931160,123.055878 72.085884,123.256363 72.050949,124.036598 
	C72.048203,124.673096 72.078705,124.850540 72.109222,125.027992 
	C72.087639,125.757004 72.066063,126.486023 72.081711,127.577957 
z"/>
<path fill="#4CC1B8" opacity="1.000000" stroke="none" 
	d="
M305.186035,146.011032 
	C307.324097,146.658783 309.462311,147.660629 311.796356,148.858826 
	C309.723511,148.158508 307.454895,147.261826 305.186035,146.011032 
z"/>
<path fill="#50CEC5" opacity="1.000000" stroke="none" 
	d="
M409.829712,104.212387 
	C408.462708,104.424858 406.995239,104.355812 405.258392,104.124138 
	C406.549255,100.885414 408.141327,102.728027 409.829712,104.212387 
z"/>
<path fill="#50CEC5" opacity="1.000000" stroke="none" 
	d="
M401.217255,149.168243 
	C402.813873,148.322449 404.664612,147.698807 406.774536,147.167877 
	C405.179596,147.970520 403.325470,148.680466 401.217255,149.168243 
z"/>
<path fill="#4CC0B8" opacity="1.000000" stroke="none" 
	d="
M345.676697,145.887726 
	C345.623688,143.671219 345.896637,141.274658 346.452454,138.715485 
	C346.491119,140.937790 346.246887,143.322739 345.676697,145.887726 
z"/>
<path fill="#25625F" opacity="1.000000" stroke="none" 
	d="
M119.105965,144.250336 
	C119.436028,142.135147 120.031509,139.810669 120.960861,137.355331 
	C120.653618,139.496658 120.012505,141.768860 119.105965,144.250336 
z"/>
<path fill="#4CC0B8" opacity="1.000000" stroke="none" 
	d="
M365.905243,104.035789 
	C364.292175,104.369598 362.498444,104.443146 360.265411,104.417839 
	C361.792267,104.137840 363.758423,103.956688 365.905243,104.035789 
z"/>
<path fill="#3A9089" opacity="1.000000" stroke="none" 
	d="
M303.446777,88.883636 
	C302.719025,87.677612 302.262360,86.282471 302.020508,84.597687 
	C305.432251,84.382057 305.481842,84.528717 303.446777,88.883636 
z"/>
<path fill="#50CEC5" opacity="1.000000" stroke="none" 
	d="
M385.083374,148.380829 
	C386.511444,148.263824 388.046234,148.463898 389.781738,148.858002 
	C388.384979,148.933975 386.787567,148.815933 385.083374,148.380829 
z"/>
<path fill="#25625F" opacity="1.000000" stroke="none" 
	d="
M110.322685,147.910217 
	C112.511925,146.947296 115.114151,146.164383 118.100624,145.434799 
	C117.284538,150.473373 113.392036,147.441147 110.322685,147.910217 
z"/>
<path fill="#4CC1B8" opacity="1.000000" stroke="none" 
	d="
M319.211853,149.118408 
	C320.500153,148.134506 322.016785,147.341919 323.855774,146.540863 
	C322.598785,147.458160 321.019470,148.383942 319.211853,149.118408 
z"/>
<path fill="#3A9089" opacity="1.000000" stroke="none" 
	d="
M256.843140,139.312286 
	C257.096130,140.930756 257.105835,142.872055 256.905762,145.078201 
	C256.663940,143.440414 256.631897,141.537750 256.843140,139.312286 
z"/>
<path fill="#4CC1B8" opacity="1.000000" stroke="none" 
	d="
M304.315735,131.118042 
	C304.435486,132.670120 304.231018,134.414795 303.835144,136.427551 
	C303.759644,134.900650 303.875549,133.105637 304.315735,131.118042 
z"/>
<path fill="#4CC0B8" opacity="1.000000" stroke="none" 
	d="
M330.429077,143.081741 
	C330.784332,144.330032 330.836395,145.709961 330.935730,147.504578 
	C330.697266,146.350647 330.411560,144.781998 330.429077,143.081741 
z"/>
<path fill="#3A9089" opacity="1.000000" stroke="none" 
	d="
M295.234802,112.795334 
	C295.365204,111.340355 295.783051,109.672340 296.494232,107.894104 
	C296.365814,109.383362 295.944031,110.982834 295.234802,112.795334 
z"/>
<path fill="#3A9089" opacity="1.000000" stroke="none" 
	d="
M291.969788,84.069672 
	C291.117340,84.487274 290.184998,84.704338 289.172058,84.602333 
	C290.024292,84.145226 290.957092,84.007179 291.969788,84.069672 
z"/>
<path fill="#3A9089" opacity="1.000000" stroke="none" 
	d="
M293.082581,119.085686 
	C293.199829,117.831390 293.575989,116.387573 294.231079,114.768234 
	C294.120483,116.027199 293.730957,117.461678 293.082581,119.085686 
z"/>
<path fill="#25625F" opacity="1.000000" stroke="none" 
	d="
M60.610146,83.817307 
	C60.975506,83.781876 61.172401,84.137772 61.232376,84.332069 
	C59.699890,85.248978 58.107430,85.971588 56.279991,86.857559 
	C56.161755,86.119202 56.278503,85.217484 56.958923,84.120483 
	C57.695847,83.877441 57.869095,83.829674 58.042343,83.781898 
	C58.776489,83.805511 59.510635,83.829117 60.610146,83.817307 
z"/>
<path fill="#50CEC5" opacity="1.000000" stroke="none" 
	d="
M415.303040,140.945663 
	C415.528809,139.812317 416.062958,138.627136 416.842102,137.224884 
	C416.595276,138.303162 416.103363,139.598511 415.303040,140.945663 
z"/>
<path fill="#50CEC5" opacity="1.000000" stroke="none" 
	d="
M419.752136,124.986938 
	C420.035522,124.164612 420.318909,123.342285 420.794312,122.255707 
	C420.986633,123.250488 420.986969,124.509514 420.555298,125.630852 
	C419.999542,125.324417 419.875824,125.155678 419.752136,124.986938 
z"/>
<path fill="#50CEC5" opacity="1.000000" stroke="none" 
	d="
M410.909485,145.472961 
	C411.419464,144.493408 412.295776,143.600082 413.479706,142.622437 
	C412.950195,143.545151 412.113037,144.552170 410.909485,145.472961 
z"/>
<path fill="#3FA7A0" opacity="1.000000" stroke="none" 
	d="
M253.343399,126.079819 
	C253.285858,125.273643 253.454315,124.371399 253.885971,123.241608 
	C253.955917,124.003952 253.762665,124.993851 253.343399,126.079819 
z"/>
<path fill="#4CC1B8" opacity="1.000000" stroke="none" 
	d="
M305.223938,126.016647 
	C305.432404,126.821434 305.395142,127.743301 305.170410,128.842636 
	C304.981354,128.057983 304.979797,127.095856 305.223938,126.016647 
z"/>
<path fill="#4CC1B8" opacity="1.000000" stroke="none" 
	d="
M306.308777,120.032982 
	C306.523254,120.874321 306.480743,121.815109 306.226624,122.876480 
	C306.027222,122.042183 306.039490,121.087311 306.308777,120.032982 
z"/>
<path fill="#4CC1B8" opacity="1.000000" stroke="none" 
	d="
M323.816772,109.866974 
	C323.611328,109.108757 323.661072,108.269020 323.885498,107.224609 
	C324.064087,107.941772 324.067993,108.863617 323.816772,109.866974 
z"/>
<path fill="#4CC0B8" opacity="1.000000" stroke="none" 
	d="
M374.231934,111.774078 
	C373.653870,111.206879 373.276855,110.424599 372.949799,109.312790 
	C373.477478,109.841835 373.955231,110.700417 374.231934,111.774078 
z"/>
<path fill="#4EC5BC" opacity="1.000000" stroke="none" 
	d="
M56.113068,95.581085 
	C55.891762,96.175484 55.670067,96.421799 55.279655,96.854996 
	C55.134842,96.068924 55.158745,95.095970 55.451344,94.024887 
	C55.850922,94.362183 55.981796,94.797592 56.113068,95.581085 
z"/>
<path fill="#4CC0B8" opacity="1.000000" stroke="none" 
	d="
M373.845459,118.901207 
	C373.647461,118.401978 373.671051,117.857574 373.873749,117.164047 
	C374.057587,117.628624 374.062317,118.242325 373.845459,118.901207 
z"/>
<path fill="#1E4442" opacity="1.000000" stroke="none" 
	d="
M419.534241,125.163109 
	C419.875824,125.155678 419.999542,125.324417 420.281830,125.764008 
	C420.125885,126.604248 419.811340,127.173653 419.265930,127.973602 
	C418.564392,128.102097 418.093689,128.000061 417.294189,127.748596 
	C417.749054,126.845879 418.532684,126.092575 419.534241,125.163109 
z"/>
<path fill="#4CC1B8" opacity="1.000000" stroke="none" 
	d="
M307.178101,115.012268 
	C307.379333,115.740005 307.341614,116.595573 307.128662,117.732498 
	C306.948700,117.055939 306.943909,116.098015 307.178101,115.012268 
z"/>
<path fill="#4CC1B8" opacity="1.000000" stroke="none" 
	d="
M320.940857,125.900696 
	C320.715790,125.405144 320.701813,124.849266 320.866760,124.152878 
	C321.081116,124.621696 321.116516,125.231033 320.940857,125.900696 
z"/>
<path fill="#4CC1B8" opacity="1.000000" stroke="none" 
	d="
M322.495361,116.994858 
	C322.297363,116.064087 322.352448,115.049522 322.646942,113.914261 
	C322.840363,114.832733 322.794403,115.871895 322.495361,116.994858 
z"/>
<path fill="#4CC0B8" opacity="1.000000" stroke="none" 
	d="
M372.042358,107.344025 
	C371.275818,107.149963 370.477448,106.641388 369.612976,105.831894 
	C370.368103,106.030487 371.189331,106.529999 372.042358,107.344025 
z"/>
<path fill="#4EC5BC" opacity="1.000000" stroke="none" 
	d="
M54.869537,114.239288 
	C55.137619,115.068932 55.198635,116.143326 55.169800,117.613953 
	C54.940784,116.834801 54.801628,115.659424 54.869537,114.239288 
z"/>
<path fill="#25625F" opacity="1.000000" stroke="none" 
	d="
M72.911194,89.772247 
	C72.545464,89.381653 72.346321,88.621696 72.448471,87.856834 
	C72.859108,88.368912 72.968452,88.885895 72.911194,89.772247 
z"/>
<path fill="#3A9089" opacity="1.000000" stroke="none" 
	d="
M244.219025,115.009743 
	C244.439560,115.734932 244.417191,116.607559 244.212662,117.761734 
	C244.012375,117.081253 243.994247,116.119217 244.219025,115.009743 
z"/>
<path fill="#3A9089" opacity="1.000000" stroke="none" 
	d="
M271.538879,85.727615 
	C270.903595,85.590988 270.437347,85.219933 269.858063,84.571320 
	C270.399323,84.693573 271.053589,85.093384 271.538879,85.727615 
z"/>
<path fill="#3FA7A0" opacity="1.000000" stroke="none" 
	d="
M251.635452,132.129868 
	C251.478088,131.605789 251.560196,131.016907 251.860596,130.210449 
	C252.010895,130.683609 251.942917,131.374344 251.635452,132.129868 
z"/>
<path fill="#25625F" opacity="1.000000" stroke="none" 
	d="
M83.447258,141.940048 
	C83.271278,140.987991 83.369011,139.865906 83.867348,139.015808 
	C84.342964,139.525513 84.417976,139.763245 84.492996,140.000977 
	C84.235649,140.590652 83.978310,141.180328 83.447258,141.940048 
z"/>
<path fill="#4CC1B8" opacity="1.000000" stroke="none" 
	d="
M303.580963,142.588776 
	C304.090088,142.984177 304.467163,143.708435 304.834961,144.745270 
	C304.366760,144.344452 303.907837,143.631042 303.580963,142.588776 
z"/>
<path fill="#4EC5BC" opacity="1.000000" stroke="none" 
	d="
M88.229095,86.103508 
	C88.363472,86.737946 88.203857,87.527359 87.799866,88.515442 
	C87.682022,87.895561 87.808563,87.077026 88.229095,86.103508 
z"/>
<path fill="#25625F" opacity="1.000000" stroke="none" 
	d="
M72.760445,93.837448 
	C72.430809,93.447098 72.285133,92.681885 72.431061,91.880196 
	C72.796570,92.383339 72.870491,92.922958 72.760445,93.837448 
z"/>
<path fill="#4CC0B8" opacity="1.000000" stroke="none" 
	d="
M371.202881,124.794701 
	C371.188751,124.104721 371.525604,123.343437 372.141907,122.424202 
	C372.132141,123.085304 371.842987,123.904350 371.202881,124.794701 
z"/>
<path fill="#4CC1B8" opacity="1.000000" stroke="none" 
	d="
M321.801453,121.008789 
	C321.567688,120.528099 321.559296,119.971474 321.760254,119.203537 
	C321.988647,119.639107 322.007751,120.285980 321.801453,121.008789 
z"/>
<path fill="#4CC0B8" opacity="1.000000" stroke="none" 
	d="
M343.189209,148.254303 
	C343.490570,147.778748 343.975647,147.492920 344.737366,147.138397 
	C344.466980,147.527817 343.919922,147.985916 343.189209,148.254303 
z"/>
<path fill="#25625F" opacity="1.000000" stroke="none" 
	d="
M88.364250,124.853683 
	C88.135521,124.313148 88.186523,123.615211 88.526291,122.897362 
	C88.758034,123.483727 88.701012,124.090012 88.364250,124.853683 
z"/>
<path fill="#4EC5BC" opacity="1.000000" stroke="none" 
	d="
M127.802544,119.998711 
	C127.670662,119.350082 127.833366,118.529198 128.249390,117.503937 
	C128.367523,118.141861 128.232330,118.984161 127.802544,119.998711 
z"/>
<path fill="#4CC0B8" opacity="1.000000" stroke="none" 
	d="
M331.106964,148.212433 
	C331.532715,147.900696 331.978180,147.834412 332.731140,147.919006 
	C332.401306,148.199203 331.764008,148.328537 331.106964,148.212433 
z"/>
<path fill="#3A9089" opacity="1.000000" stroke="none" 
	d="
M296.855865,84.080872 
	C296.277405,84.377930 295.471191,84.500328 294.286591,84.445541 
	C294.814850,84.147644 295.721466,84.026924 296.855865,84.080872 
z"/>
<path fill="#4EC5BC" opacity="1.000000" stroke="none" 
	d="
M72.268089,118.821701 
	C71.961456,118.229782 71.882744,117.447235 71.997734,116.309616 
	C72.292961,116.846725 72.394485,117.738907 72.268089,118.821701 
z"/>
<path fill="#25625F" opacity="1.000000" stroke="none" 
	d="
M123.534737,131.348953 
	C123.449600,130.481659 123.554291,129.678467 123.848038,129.012665 
	C124.099602,129.565918 124.162117,129.981796 124.122200,130.754257 
	C124.019768,131.110855 124.092812,131.255005 124.092812,131.255005 
	C124.092812,131.255005 123.724571,131.413055 123.534737,131.348953 
z"/>
<path fill="#50CEC5" opacity="1.000000" stroke="none" 
	d="
M408.750305,146.725220 
	C408.880096,146.301498 409.359283,145.903488 410.161194,145.465805 
	C410.022461,145.867722 409.561066,146.309311 408.750305,146.725220 
z"/>
<path fill="#4EC5BC" opacity="1.000000" stroke="none" 
	d="
M57.172138,148.471848 
	C57.179642,148.219635 57.384956,148.108490 57.876350,147.795303 
	C58.324730,147.633133 58.487030,147.672989 58.833088,147.883575 
	C58.467880,148.240479 57.918915,148.426697 57.172138,148.471848 
z"/>
<path fill="#25625F" opacity="1.000000" stroke="none" 
	d="
M60.255302,147.888458 
	C60.520782,147.589813 61.138271,147.456818 61.922722,147.523758 
	C61.595558,147.833817 61.101433,147.943954 60.255302,147.888458 
z"/>
<path fill="#4EC5BC" opacity="1.000000" stroke="none" 
	d="
M122.060455,136.790802 
	C121.880089,136.317093 121.890205,135.959946 122.126053,135.438934 
	C122.318161,135.819168 122.284546,136.363281 122.060455,136.790802 
z"/>
<path fill="#25625F" opacity="1.000000" stroke="none" 
	d="
M72.082039,114.050064 
	C71.751228,113.698174 71.619659,113.088142 71.706818,112.224022 
	C72.044121,112.577263 72.162697,113.184593 72.082039,114.050064 
z"/>
<path fill="#25625F" opacity="1.000000" stroke="none" 
	d="
M95.250755,147.903137 
	C95.519218,147.601334 96.137398,147.473801 96.921814,147.544495 
	C96.592201,147.854279 96.096336,147.965820 95.250755,147.903137 
z"/>
<path fill="#25625F" opacity="1.000000" stroke="none" 
	d="
M82.785431,144.129578 
	C82.565208,143.712708 82.589218,143.096115 82.890045,142.304703 
	C83.121124,142.729858 83.075394,143.329865 82.785431,144.129578 
z"/>
<path fill="#4EC5BC" opacity="1.000000" stroke="none" 
	d="
M93.074463,148.189667 
	C93.168938,147.960342 93.343880,147.894608 93.772110,147.949493 
	C93.735237,148.164505 93.445084,148.258881 93.074463,148.189667 
z"/>
<path fill="#3A9089" opacity="1.000000" stroke="none" 
	d="
M285.992859,88.975410 
	C286.439362,89.116264 286.468414,89.373299 286.057434,89.727989 
	C285.628998,89.566261 285.614990,89.321579 285.992859,88.975410 
z"/>
<path fill="#4EC5BC" opacity="1.000000" stroke="none" 
	d="
M80.094536,148.208038 
	C80.143318,147.964081 80.295540,147.871185 80.708267,147.838379 
	C80.711845,148.052017 80.454910,148.205566 80.094536,148.208038 
z"/>
<path fill="#4CC0B8" opacity="1.000000" stroke="none" 
	d="
M359.331116,104.900436 
	C359.302124,104.881111 359.463531,105.195824 359.463531,105.195824 
	C359.463531,105.195824 359.166382,105.076256 359.293030,104.979958 
	C359.419678,104.883659 359.360077,104.919769 359.331116,104.900436 
z"/>
<path fill="#3FA7A0" opacity="1.000000" stroke="none" 
	d="
M248.190521,142.602539 
	C248.215775,142.564041 247.978546,142.722046 247.978546,142.722046 
	C247.978546,142.722046 248.088913,142.470795 248.154297,142.593063 
	C248.219666,142.715332 248.165253,142.641022 248.190521,142.602539 
z"/>
<path fill="#4EC5BC" opacity="1.000000" stroke="none" 
	d="
M57.920616,83.676865 
	C57.869095,83.829674 57.695847,83.877441 57.254551,83.897873 
	C57.182400,83.560852 57.453194,83.461281 57.920616,83.676865 
z"/>
<path fill="#3A9089" opacity="1.000000" stroke="none" 
	d="
M285.809631,91.467171 
	C285.781158,91.496056 286.105042,91.330376 286.105042,91.330376 
	C286.105042,91.330376 286.009827,91.561775 285.891785,91.475357 
	C285.773712,91.388939 285.838074,91.438286 285.809631,91.467171 
z"/>
<path fill="#25625F" opacity="1.000000" stroke="none" 
	d="
M82.202034,145.820419 
	C81.895477,145.813950 81.740692,145.649994 81.649048,145.456207 
	C81.623184,145.401505 81.782158,145.259399 82.046211,145.171387 
	C82.236069,145.185425 82.377731,145.651642 82.202034,145.820419 
z"/>
<path fill="#4CC1B8" opacity="1.000000" stroke="none" 
	d="
M324.824707,145.968552 
	C324.516754,145.806671 324.533936,145.592026 324.896912,145.346695 
	C325.179535,145.524094 325.148590,145.724030 324.824707,145.968552 
z"/>
<path fill="#4EC5BC" opacity="1.000000" stroke="none" 
	d="
M119.450623,146.484970 
	C119.432220,146.486008 119.469017,146.483932 119.450623,146.484970 
z"/>
<path fill="#3A9089" opacity="1.000000" stroke="none" 
	d="
M297.238922,105.622536 
	C297.185730,105.686546 297.112366,105.839569 297.021332,105.850906 
	C296.938110,105.861267 296.835785,105.718330 296.741852,105.642944 
	C296.837982,105.570267 296.934113,105.497589 297.146362,105.566650 
	C297.262512,105.708389 297.211060,105.649803 297.238922,105.622536 
z"/>
<path fill="#4CC0B8" opacity="1.000000" stroke="none" 
	d="
M333.287231,148.136154 
	C333.090851,148.069458 333.329437,147.707870 333.329437,147.707870 
	C333.329437,147.707870 333.802643,147.755676 333.840393,147.915375 
	C333.878143,148.075058 333.483582,148.202850 333.287231,148.136154 
z"/>
<path fill="#4CC0B8" opacity="1.000000" stroke="none" 
	d="
M369.446655,105.294998 
	C369.371918,105.413101 369.135529,105.455887 369.091003,105.344238 
	C369.046448,105.232590 369.272705,104.949783 369.272705,104.949783 
	C369.272705,104.949783 369.521362,105.176895 369.446655,105.294998 
z"/>
<path fill="#25625F" opacity="1.000000" stroke="none" 
	d="
M101.194916,147.858856 
	C101.229828,147.611954 101.565346,147.494049 102.000977,147.558167 
	C101.899239,147.822769 101.697380,147.905319 101.194916,147.858856 
z"/>
<path fill="#25625F" opacity="1.000000" stroke="none" 
	d="
M55.940269,91.229622 
	C56.225201,91.140862 56.408791,91.304703 56.525654,91.507088 
	C56.570393,91.584564 56.462608,91.750107 56.244354,91.955437 
	C55.980366,91.856110 55.896343,91.676857 55.940269,91.229622 
z"/>
<path fill="#3FA7A0" opacity="1.000000" stroke="none" 
	d="
M252.130157,128.592773 
	C252.148193,128.554550 251.964294,128.704636 251.964294,128.704636 
	C251.964294,128.704636 252.049377,128.494339 252.103302,128.598404 
	C252.157211,128.702469 252.112106,128.630981 252.130157,128.592773 
z"/>
<path fill="#3A9089" opacity="1.000000" stroke="none" 
	d="
M271.203552,87.453140 
	C271.223663,87.418594 271.048340,87.562279 271.048340,87.562279 
	C271.048340,87.562279 271.124878,87.357834 271.176636,87.455811 
	C271.228424,87.553795 271.183472,87.487686 271.203552,87.453140 
z"/>
<path fill="#25625F" opacity="1.000000" stroke="none" 
	d="
M126.982193,121.194740 
	C126.750374,121.012978 126.729813,120.695084 126.929581,120.247986 
	C127.164429,120.432053 127.178940,120.745331 126.982193,121.194740 
z"/>
<path fill="#4EC5BC" opacity="1.000000" stroke="none" 
	d="
M54.936749,120.091217 
	C55.095650,120.171898 55.122948,120.345573 55.061481,120.767723 
	C54.680618,120.783936 54.624760,120.506607 54.936749,120.091217 
z"/>
<path fill="#3FA7A0" opacity="1.000000" stroke="none" 
	d="
M238.263947,86.953308 
	C238.039124,86.858658 237.976044,86.672951 238.033417,86.218750 
	C238.285873,86.137985 238.443527,86.314026 238.537018,86.519287 
	C238.573761,86.599976 238.467087,86.745995 238.263947,86.953308 
z"/>
<path fill="#4EC5BC" opacity="1.000000" stroke="none" 
	d="
M72.223755,124.920624 
	C72.078705,124.850540 72.048203,124.673096 72.092484,124.236160 
	C72.428406,124.214142 72.485413,124.493004 72.223755,124.920624 
z"/>
<path fill="#4EC5BC" opacity="1.000000" stroke="none" 
	d="
M125.764931,125.791847 
	C125.590576,125.793274 125.504341,125.318840 125.690140,125.165115 
	C125.979378,125.191269 126.102081,125.364143 126.171761,125.556259 
	C126.187767,125.600410 126.021606,125.710617 125.764931,125.791847 
z"/>
<path fill="#4EC5BC" opacity="1.000000" stroke="none" 
	d="
M87.631470,128.713196 
	C87.463707,128.691971 87.344566,128.297134 87.515381,128.181641 
	C87.686195,128.066132 88.023926,128.361206 88.023926,128.361206 
	C88.023926,128.361206 87.799232,128.734436 87.631470,128.713196 
z"/>
<path fill="#4EC5BC" opacity="1.000000" stroke="none" 
	d="
M124.783768,128.814819 
	C124.580849,128.662613 124.555763,128.496643 124.710495,128.153839 
	C124.994629,128.166000 125.120781,128.347626 125.188446,128.548904 
	C125.206146,128.601578 125.042137,128.715347 124.783768,128.814819 
z"/>
<path fill="#3A9089" opacity="1.000000" stroke="none" 
	d="
M285.131470,141.857483 
	C284.982513,141.992294 284.671326,141.700760 284.671326,141.700760 
	C284.671326,141.700760 284.870819,141.288452 285.033295,141.309189 
	C285.195770,141.329926 285.280396,141.722687 285.131470,141.857483 
z"/>
<path fill="#3A9089" opacity="1.000000" stroke="none" 
	d="
M287.380371,84.971863 
	C287.792297,85.199921 287.752777,85.503960 287.283142,85.904686 
	C287.098602,85.712196 287.123901,85.394348 287.380371,84.971863 
z"/>
<path fill="#4EC5BC" opacity="1.000000" stroke="none" 
	d="
M86.727234,131.783936 
	C86.553017,131.784409 86.434235,131.326904 86.616226,131.175995 
	C86.913727,131.197067 87.045425,131.361633 87.130699,131.547485 
	C87.147232,131.583511 86.982544,131.702667 86.727234,131.783936 
z"/>
<path fill="#25625F" opacity="1.000000" stroke="none" 
	d="
M123.241379,131.866089 
	C122.924904,131.812271 122.788994,131.653427 122.653091,131.494568 
	C122.748367,131.413956 122.843643,131.333359 123.119751,131.307007 
	C123.300575,131.361267 123.421951,131.761047 123.241379,131.866089 
z"/>
<path fill="#4EC5BC" opacity="1.000000" stroke="none" 
	d="
M124.091934,131.074524 
	C124.164093,131.038177 124.420799,131.287430 124.420799,131.287430 
	C124.420799,131.287430 124.161087,131.429016 124.126953,131.342010 
	C124.092812,131.255005 124.019768,131.110855 124.091934,131.074524 
z"/>
<path fill="#4EC5BC" opacity="1.000000" stroke="none" 
	d="
M121.053238,87.973602 
	C121.265106,87.944611 121.381371,88.137962 121.432442,88.347214 
	C121.454597,88.438019 121.342552,88.561584 121.114815,88.695618 
	C120.935844,88.548126 120.933510,88.375267 121.053238,87.973602 
z"/>
<path fill="#3A9089" opacity="1.000000" stroke="none" 
	d="
M270.225159,114.514526 
	C270.166687,114.444939 270.083984,114.400925 270.128235,114.470978 
	C270.255188,114.585052 270.200989,114.540100 270.225159,114.514526 
z"/>
<path fill="#4EC5BC" opacity="1.000000" stroke="none" 
	d="
M84.955185,137.912369 
	C84.743042,137.774277 84.705780,137.592606 84.853241,137.202942 
	C85.139038,137.190292 85.265633,137.378113 85.326866,137.585236 
	C85.347290,137.654312 85.200447,137.772858 84.955185,137.912369 
z"/>
<path fill="#3A9089" opacity="1.000000" stroke="none" 
	d="
M286.813812,88.459419 
	C286.786255,88.488091 287.137878,88.314888 287.137878,88.314888 
	C287.137878,88.314888 287.032837,88.572128 286.906311,88.476265 
	C286.779785,88.380402 286.841370,88.430748 286.813812,88.459419 
z"/>
<path fill="#4EC5BC" opacity="1.000000" stroke="none" 
	d="
M130.219254,112.793091 
	C130.024734,112.597786 130.058319,112.182838 130.335739,111.557938 
	C130.535507,111.756477 130.491425,112.164963 130.219254,112.793091 
z"/>
<path fill="#4CC1B8" opacity="1.000000" stroke="none" 
	d="
M303.474945,137.389954 
	C303.621063,137.443893 303.677551,137.570358 303.637085,137.626373 
	C303.596619,137.682404 303.192383,137.632812 303.192383,137.632812 
	C303.192383,137.632812 303.328827,137.336029 303.474945,137.389954 
z"/>
<path fill="#4EC5BC" opacity="1.000000" stroke="none" 
	d="
M84.622246,139.756546 
	C84.417976,139.763245 84.342964,139.525513 84.122406,138.941986 
	C83.976852,138.596207 84.288269,138.376801 84.476593,138.404877 
	C84.693771,138.792679 84.722633,139.152390 84.622246,139.756546 
z"/>
<path fill="#3FA7A0" opacity="1.000000" stroke="none" 
	d="
M237.145691,108.431328 
	C237.164719,108.397240 236.976593,108.567635 236.976593,108.567635 
	C236.976593,108.567635 237.029114,108.349136 237.096512,108.441589 
	C237.163910,108.534035 237.126663,108.465416 237.145691,108.431328 
z"/>
<path fill="#25625F" opacity="1.000000" stroke="none" 
	d="
M93.884735,116.117241 
	C93.084419,115.333916 92.576363,114.369560 91.776413,113.249329 
	C91.653290,111.573265 91.822052,110.053085 91.990807,108.532898 
	C92.719536,108.579155 93.448265,108.625412 94.176994,108.671669 
	C94.176994,111.093185 94.176994,113.514694 93.884735,116.117241 
z"/>
<path fill="#25625F" opacity="1.000000" stroke="none" 
	d="
M93.535034,119.164017 
	C93.280510,118.964157 93.233292,118.718300 93.294250,118.112823 
	C93.515732,118.208145 93.629036,118.663086 93.535034,119.164017 
z"/>
<path fill="#25625F" opacity="1.000000" stroke="none" 
	d="
M63.142826,84.629288 
	C63.159672,84.443100 63.532616,84.352776 64.058708,84.399353 
	C63.974213,84.599220 63.736565,84.662178 63.142826,84.629288 
z"/>
<path fill="#25625F" opacity="1.000000" stroke="none" 
	d="
M87.000504,128.990967 
	C86.873634,128.919952 86.760429,128.843460 86.647217,128.766968 
	C86.838921,128.727646 87.030632,128.688324 87.112091,128.801758 
	C87.001839,128.954529 87.014153,128.985474 87.000504,128.990967 
z"/>
<path fill="#50D2C9" opacity="1.000000" stroke="none" 
	d="
M394.089478,120.037193 
	C396.868317,118.627220 399.545746,116.819061 402.492584,116.068451 
	C403.296661,115.863632 404.910675,118.838455 406.152985,120.354050 
	C404.826599,121.256226 403.606079,122.464630 402.142700,122.970375 
	C400.805115,123.432632 399.204803,123.134659 397.172302,123.164742 
	C395.675537,122.866920 394.726715,122.576073 393.777893,122.285217 
	C393.822754,122.090118 393.801056,121.902740 393.820251,121.407715 
	C393.981659,120.740639 394.035553,120.388916 394.089478,120.037193 
z"/>
<path fill="#50ECE2" opacity="1.000000" stroke="none" 
	d="
M410.759888,128.024155 
	C412.110748,128.691605 413.221771,129.234619 415.426117,130.311966 
	C411.356110,130.956055 408.356201,131.430786 405.157959,132.203613 
	C404.579834,132.657074 404.200073,132.812454 403.142853,133.074554 
	C401.585999,133.626511 400.666718,134.505478 399.835266,134.429001 
	C397.951599,134.255768 395.065826,134.172958 394.461487,133.047302 
	C393.011383,130.346390 395.710205,130.083740 397.641693,129.592407 
	C398.184937,129.454224 398.587250,128.761993 399.458344,128.255295 
	C400.934113,128.039658 402.005737,127.892639 403.077362,127.745621 
	C404.443481,127.781349 405.809601,127.817078 407.908081,127.926559 
	C409.100342,127.898499 409.560181,127.796692 410.020050,127.694885 
	C410.186737,127.763168 410.353424,127.831451 410.759888,128.024155 
z"/>
<path fill="#50CEC5" opacity="1.000000" stroke="none" 
	d="
M399.054199,128.323883 
	C398.587250,128.761993 398.184937,129.454224 397.641693,129.592407 
	C395.710205,130.083740 393.011383,130.346390 394.461487,133.047302 
	C395.065826,134.172958 397.951599,134.255768 399.835266,134.429001 
	C400.666718,134.505478 401.585999,133.626511 402.846222,133.156250 
	C402.231812,137.378677 398.366852,138.158905 395.583374,137.256348 
	C391.973816,136.085938 390.896667,132.458817 393.086639,128.294769 
	C393.765045,127.864731 393.942688,127.763779 394.120361,127.662827 
	C394.511505,127.686737 394.902679,127.710648 395.967010,127.827881 
	C397.444855,128.055435 398.249542,128.189651 399.054199,128.323883 
z"/>
<path fill="#1E4442" opacity="1.000000" stroke="none" 
	d="
M399.458344,128.255280 
	C398.249542,128.189651 397.444855,128.055435 396.257446,127.777527 
	C398.211304,127.463371 400.547882,127.292900 402.980896,127.434021 
	C402.005737,127.892639 400.934113,128.039658 399.458344,128.255280 
z"/>
<path fill="#1E4442" opacity="1.000000" stroke="none" 
	d="
M394.184296,127.381721 
	C393.942688,127.763779 393.765045,127.864731 393.280945,127.962540 
	C393.114105,126.366257 393.253815,124.773109 393.585693,122.732597 
	C394.726715,122.576073 395.675537,122.866920 396.814850,123.392868 
	C396.086304,124.785507 395.167267,125.943062 394.184296,127.381721 
z"/>
<path fill="#1E4442" opacity="1.000000" stroke="none" 
	d="
M409.861908,127.508301 
	C409.560181,127.796692 409.100342,127.898499 408.311920,127.849838 
	C408.556824,127.573494 409.130310,127.447609 409.861908,127.508301 
z"/>
<path fill="#1E4442" opacity="1.000000" stroke="none" 
	d="
M393.849823,120.203979 
	C394.035553,120.388916 393.981659,120.740639 393.740143,121.288528 
	C393.571747,121.113388 393.590973,120.742081 393.849823,120.203979 
z"/>
<path fill="#1E4442" opacity="1.000000" stroke="none" 
	d="
M413.954224,127.478745 
	C413.872925,127.687645 413.685974,127.751106 413.220734,127.713486 
	C413.244507,127.519371 413.546509,127.426346 413.954224,127.478745 
z"/>
</svg>